<svg width="185" height="20" viewBox="0 0 185 20" fill="none" xmlns="http://www.w3.org/2000/svg">
<mask id="mask0_1268_16325" style="mask-type:luminance" maskUnits="userSpaceOnUse" x="0" y="0" width="185" height="20">
<path d="M185 0H0V19.6267H185V0Z" fill="white"/>
</mask>
<g mask="url(#mask0_1268_16325)">
<path d="M53.0862 8.18901C54.3583 8.18901 55.3996 8.56943 56.2101 9.33027C57.0206 10.0911 57.4265 11.064 57.4277 12.2488C57.4277 13.4604 57.0218 14.4459 56.2101 15.2056C55.3984 15.9652 54.3571 16.3389 53.0862 16.3268H48.0723V3.23145H56.3046V5.70114H50.6546V8.18901H53.0862ZM53.0862 13.9135C53.5482 13.93 54.0005 13.7775 54.3583 13.4846C54.5283 13.3285 54.6618 13.1369 54.7491 12.9232C54.8364 12.7096 54.8755 12.4793 54.8635 12.2488C54.8768 12.0212 54.8382 11.7934 54.7507 11.5828C54.6632 11.3722 54.529 11.1843 54.3583 11.0331C54.0012 10.7387 53.5486 10.5855 53.0862 10.6024H50.6546V13.9135H53.0862Z" fill="white"/>
<path d="M40.6668 16.5923C38.6969 16.5923 37.0692 15.9375 35.7838 14.6278C34.4983 13.3182 33.8562 11.7026 33.8574 9.78113C33.8574 7.84269 34.4995 6.22712 35.7838 4.93442C37.068 3.64172 38.6957 2.98689 40.6668 2.96993C41.8121 2.9609 42.9398 3.2516 43.9379 3.81315C44.9168 4.32981 45.7343 5.10639 46.3004 6.0575L44.0742 7.3496C43.7566 6.76813 43.2751 6.29288 42.6894 5.98299C42.0714 5.64139 41.3747 5.46724 40.6686 5.47779C39.3965 5.47779 38.3667 5.87699 37.5792 6.67538C36.7917 7.47378 36.4053 8.50903 36.4198 9.78113C36.4198 11.0399 36.8063 12.0697 37.5792 12.8705C38.3522 13.6713 39.382 14.0705 40.6686 14.0681C41.3725 14.0785 42.0676 13.911 42.6894 13.5811C43.2743 13.2702 43.7556 12.7952 44.0742 12.2145L46.3004 13.5066C45.7365 14.4563 44.929 15.2381 43.9615 15.7709C42.9517 16.3221 41.8172 16.6049 40.6668 16.5923Z" fill="white"/>
<path d="M31.8292 3.23145V16.3268H29.2577V5.70114H24.6273V16.3268H22.0449V3.23145H31.8292Z" fill="white"/>
<path d="M70.7818 16.5923C68.8094 16.5923 67.1817 15.9375 65.8987 14.6278C64.6157 13.3182 63.9724 11.7026 63.9688 9.78113C63.9688 7.84269 64.6115 6.22712 65.8969 4.93442C67.1823 3.64172 68.81 2.98689 70.78 2.96993C71.9252 2.9609 73.0529 3.2516 74.0511 3.81315C75.0299 4.32981 75.8474 5.10639 76.4135 6.0575L74.1874 7.3496C73.8687 6.76891 73.3874 6.29392 72.8026 5.98299C72.1844 5.64163 71.4879 5.46749 70.7818 5.47779C69.5097 5.47779 68.4799 5.87699 67.6924 6.67538C66.9049 7.47378 66.5184 8.50903 66.5329 9.78113C66.5329 11.0399 66.9194 12.0697 67.6924 12.8705C68.4653 13.6713 69.4951 14.0705 70.7818 14.0681C71.4856 14.0785 72.1807 13.911 72.8026 13.5811C73.3874 13.2702 73.8687 12.7952 74.1874 12.2145L76.4135 13.5066C75.8497 14.4563 75.0422 15.2381 74.0747 15.7709C73.0653 16.3218 71.9316 16.6046 70.7818 16.5923ZM85.5945 6.97523V9.29409H82.6741V16.3288H80.2589V9.29409H77.304V6.97523H85.5945ZM92.5147 6.71354C93.1232 6.70719 93.7259 6.83253 94.2814 7.08096C94.837 7.3294 95.3322 7.69505 95.7331 8.15284C96.6277 9.09521 97.112 10.354 97.0798 11.6529C97.1106 12.9565 96.6268 14.2199 95.7331 15.1694C95.3298 15.6231 94.8337 15.9849 94.2785 16.2304C93.7232 16.4758 93.1218 16.5993 92.5147 16.5923C91.2051 16.5923 90.1946 16.1368 89.4835 15.2257V20.0724H87.0683V6.97523H89.4817V8.07833C90.1928 7.16726 91.2032 6.71233 92.5129 6.71354H92.5147ZM90.2122 13.5611C90.455 13.8021 90.7446 13.9909 91.063 14.1159C91.3815 14.2409 91.7221 14.2995 92.064 14.288C92.4059 14.2992 92.7465 14.2406 93.0649 14.1156C93.3833 13.9906 93.6729 13.8019 93.9159 13.5611C94.1642 13.3109 94.3587 13.0126 94.4875 12.6844C94.6163 12.3563 94.6765 12.0052 94.6646 11.6529C94.6781 11.3032 94.6184 10.9544 94.4895 10.629C94.3606 10.3036 94.1652 10.0086 93.9159 9.76295C93.6762 9.51626 93.3877 9.32226 93.0689 9.19334C92.75 9.06442 92.4078 9.00342 92.064 9.01423C91.7202 9.0032 91.3779 9.0641 91.0591 9.19303C90.7402 9.32196 90.4517 9.51608 90.2122 9.76295C89.9681 10.0114 89.7777 10.3074 89.6526 10.6325C89.5276 10.9576 89.4706 11.3049 89.4853 11.6529C89.4726 12.0035 89.5304 12.353 89.6553 12.6807C89.7801 13.0085 89.9695 13.3079 90.2122 13.5611ZM106.077 6.97523H108.492V16.3288H106.077V15.2257C105.35 16.1368 104.334 16.5923 103.028 16.5923C102.421 16.5969 101.82 16.4724 101.265 16.2271C100.711 15.9818 100.214 15.6212 99.8093 15.1694C98.9261 14.2146 98.4496 12.9532 98.4809 11.6529C98.4473 10.3571 98.9244 9.10003 99.8093 8.15284C100.212 7.69692 100.707 7.33255 101.262 7.08427C101.818 6.83599 102.42 6.70958 103.028 6.71354C104.339 6.71354 105.355 7.16847 106.077 8.07833V6.97523ZM101.625 13.5611C101.868 13.8021 102.157 13.9909 102.476 14.1159C102.794 14.2409 103.135 14.2995 103.477 14.288C103.819 14.2992 104.159 14.2406 104.477 14.1156C104.796 13.9906 105.085 13.8019 105.328 13.5611C105.577 13.3109 105.771 13.0126 105.9 12.6844C106.029 12.3563 106.089 12.0052 106.077 11.6529C106.091 11.3032 106.031 10.9544 105.902 10.629C105.773 10.3036 105.578 10.0086 105.328 9.76295C105.089 9.51626 104.8 9.32226 104.481 9.19334C104.163 9.06442 103.82 9.00342 103.477 9.01423C103.133 9.0032 102.791 9.0641 102.472 9.19303C102.153 9.32196 101.864 9.51608 101.625 9.76295C101.381 10.0114 101.19 10.3074 101.065 10.6325C100.94 10.9576 100.883 11.3049 100.898 11.6529C100.885 12.0035 100.943 12.353 101.068 12.6807C101.193 13.0085 101.382 13.3079 101.625 13.5611ZM119.492 16.3288H116.705L114.684 13.4866L112.643 16.3288H109.855L113.279 11.5584L110.008 6.97523H112.796L114.686 9.61212L116.576 6.97523H119.342L116.07 11.5403L119.492 16.3288ZM128.195 15.1694C127.736 15.6325 127.188 15.9974 126.583 16.242C125.979 16.4866 125.331 16.6058 124.679 16.5923C124.027 16.6056 123.379 16.4863 122.774 16.2417C122.169 15.9972 121.62 15.6323 121.161 15.1694C120.698 14.7098 120.334 14.1613 120.09 13.5568C119.845 12.9524 119.726 12.3047 119.74 11.6529C119.725 11.0035 119.844 10.3579 120.088 9.75598C120.333 9.15406 120.698 8.60849 121.161 8.15284C121.618 7.68556 122.166 7.3168 122.771 7.06928C123.376 6.82175 124.025 6.70069 124.679 6.71354C125.332 6.70051 125.981 6.82149 126.586 7.06904C127.191 7.31658 127.739 7.68544 128.195 8.15284C128.664 8.6054 129.034 9.14994 129.282 9.75227C129.53 10.3546 129.65 11.0017 129.636 11.6529C129.649 12.3064 129.528 12.9557 129.28 13.5605C129.032 14.1653 128.663 14.7129 128.195 15.1694ZM122.863 13.5048C123.101 13.7437 123.384 13.9315 123.697 14.0565C124.009 14.1816 124.344 14.2412 124.681 14.2317C125.017 14.2412 125.352 14.1816 125.665 14.0565C125.977 13.9315 126.261 13.7437 126.498 13.5048C126.739 13.2617 126.927 12.9722 127.052 12.6538C127.177 12.3354 127.236 11.9948 127.225 11.6529C127.236 11.3108 127.178 10.9699 127.053 10.6512C126.928 10.3325 126.739 10.0426 126.498 9.7993C126.261 9.56069 125.977 9.37313 125.664 9.24813C125.352 9.12313 125.017 9.06332 124.681 9.07238C124.344 9.06332 124.01 9.12313 123.697 9.24813C123.384 9.37313 123.101 9.56069 122.863 9.7993C122.627 10.0449 122.442 10.3355 122.32 10.654C122.198 10.9724 122.141 11.3121 122.153 11.6529C122.141 11.9935 122.198 12.3328 122.32 12.6509C122.442 12.969 122.627 13.2594 122.863 13.5048ZM138.258 11.5403C139.131 11.9667 139.568 12.6773 139.568 13.6719C139.579 14.0339 139.512 14.3939 139.369 14.727C139.227 15.06 139.014 15.358 138.745 15.6001C138.208 16.0847 137.441 16.327 136.442 16.327H131.521V6.97342H136.064C137.05 6.97342 137.811 7.21572 138.347 7.70033C138.617 7.93772 138.83 8.23199 138.973 8.56195C139.115 8.89191 139.182 9.24934 139.17 9.60849C139.187 9.98049 139.113 10.3511 138.954 10.6878C138.795 11.0245 138.556 11.3172 138.258 11.5403ZM135.844 8.9579H133.785V10.6425H135.844C136.529 10.6425 136.872 10.3614 136.873 9.7993C136.874 9.23715 136.531 8.95669 135.844 8.9579ZM136.162 14.2898C136.86 14.2898 137.209 13.9918 137.209 13.3921C137.214 13.2743 137.192 13.157 137.143 13.0496C137.095 12.9423 137.021 12.8479 136.929 12.7742C136.707 12.6143 136.436 12.5354 136.162 12.5507H133.785V14.2898H136.162ZM148.375 6.97523H150.788V16.3288H148.375V15.2257C147.648 16.1368 146.631 16.5923 145.325 16.5923C144.719 16.596 144.12 16.4711 143.566 16.2258C143.012 15.9805 142.517 15.6204 142.112 15.1694C141.229 14.2146 140.752 12.9532 140.784 11.6529C140.75 10.3571 141.227 9.10003 142.112 8.15284C142.515 7.69701 143.01 7.3327 143.565 7.08443C144.121 6.83617 144.722 6.7097 145.331 6.71354C146.641 6.71354 147.658 7.16847 148.38 8.07833L148.375 6.97523ZM143.929 13.5611C144.172 13.8019 144.462 13.9906 144.78 14.1156C145.099 14.2406 145.439 14.2992 145.781 14.288C146.123 14.2995 146.464 14.2409 146.782 14.1159C147.101 13.9909 147.39 13.8021 147.633 13.5611C147.881 13.3109 148.076 13.0126 148.205 12.6844C148.333 12.3563 148.394 12.0052 148.382 11.6529C148.395 11.3032 148.336 10.9544 148.207 10.629C148.078 10.3036 147.882 10.0086 147.633 9.76295C147.394 9.51608 147.105 9.32196 146.786 9.19303C146.467 9.0641 146.125 9.0032 145.781 9.01423C145.438 9.00342 145.095 9.06442 144.776 9.19334C144.458 9.32226 144.169 9.51626 143.929 9.76295C143.685 10.0114 143.495 10.3074 143.37 10.6325C143.245 10.9576 143.188 11.3049 143.203 11.6529C143.19 12.0035 143.248 12.353 143.372 12.6807C143.497 13.0085 143.687 13.3079 143.929 13.5611ZM159.309 6.97523H161.723V16.3288H159.302V12.7742H155.578V16.3288H153.165V6.97523H155.578V10.5117H159.302L159.309 6.97523ZM170.874 6.97523H172.67V16.3288H170.307V11.0169L165.919 16.3288H164.123V6.97523H166.486V12.289L170.874 6.97523ZM177.11 12.6434C177.433 13.8149 178.312 14.4013 179.746 14.4025C180.67 14.4025 181.368 14.0905 181.842 13.4666L183.788 14.5897C182.865 15.9224 181.506 16.5887 179.71 16.5887C178.164 16.5887 176.923 16.1204 175.986 15.1839C175.05 14.2474 174.582 13.0692 174.583 11.6493C174.583 10.2391 175.045 9.06633 175.968 8.13103C176.891 7.19573 178.076 6.72202 179.523 6.70991C180.894 6.70991 182.023 7.18362 182.908 8.13103C183.353 8.6003 183.701 9.15254 183.932 9.75621C184.163 10.3599 184.273 11.0032 184.255 11.6493C184.253 11.9815 184.222 12.3129 184.162 12.6397L177.11 12.6434ZM177.071 10.7734H181.842C181.748 10.2066 181.44 9.69735 180.982 9.35043C180.561 9.04114 180.051 8.87721 179.528 8.88339C178.949 8.86044 178.38 9.03898 177.918 9.38859C177.476 9.73254 177.173 10.2241 177.064 10.7734H177.071Z" fill="#EA5614"/>
<path d="M10.1332 6.23535H0V12.0252L7.38183 19.2635V13.4736L4.05255 10.2897H9.55349L10.1332 9.71001V6.23535Z" fill="white"/>
<path d="M11.8679 4.50505H0.144531L4.19709 0.450684H15.9222V12.3212L8.97292 19.2687V13.4788L11.8679 10.5839V4.50505Z" fill="#EA5614"/>
</g>
</svg>
