<svg width="240" height="25" viewBox="0 0 240 25" fill="none" xmlns="http://www.w3.org/2000/svg">
<path d="M68.8698 9.85112C70.52 9.85112 71.8709 10.3354 72.9224 11.304C73.9739 12.2726 74.5004 13.5111 74.502 15.0196C74.502 16.5619 73.9755 17.8166 72.9224 18.7837C71.8694 19.7508 70.5185 20.2266 68.8698 20.2112H62.3652V3.53978H73.045V6.68388H65.7153V9.85112H68.8698ZM68.8698 17.1388C69.4692 17.1598 70.0559 16.9657 70.52 16.5928C70.7406 16.3941 70.9138 16.1501 71.0271 15.8781C71.1404 15.6062 71.191 15.313 71.1754 15.0196C71.1927 14.7297 71.1427 14.4398 71.0292 14.1717C70.9156 13.9036 70.7415 13.6643 70.52 13.4718C70.0568 13.0971 69.4697 12.9021 68.8698 12.9235H65.7153V17.1388H68.8698Z" fill="#2B2C84"/>
<path d="M52.7576 20.5493C50.202 20.5493 48.0904 19.7157 46.4228 18.0484C44.7553 16.3811 43.9223 14.3244 43.9238 11.8782C43.9238 9.41041 44.7568 7.35367 46.4228 5.70797C48.0889 4.06227 50.2005 3.22863 52.7576 3.20704C54.2434 3.19554 55.7063 3.56562 57.0012 4.28052C58.2711 4.93826 59.3316 5.9269 60.0661 7.13774L57.1781 8.78267C56.766 8.04242 56.1413 7.4374 55.3816 7.04288C54.5798 6.608 53.676 6.38629 52.76 6.39972C51.1097 6.39972 49.7737 6.90793 48.7521 7.92435C47.7305 8.94076 47.2291 10.2587 47.248 11.8782C47.248 13.4807 47.7494 14.7917 48.7521 15.8112C49.7549 16.8307 51.0908 17.3389 52.76 17.3358C53.6731 17.3491 54.5749 17.1358 55.3816 16.7158C56.1403 16.32 56.7647 15.7153 57.1781 14.976L60.0661 16.6209C59.3345 17.83 58.287 18.8252 57.0319 19.5036C55.7218 20.2053 54.2501 20.5654 52.7576 20.5493Z" fill="#2B2C84"/>
<path d="M41.2927 3.53978V20.2112H37.9568V6.68388H31.9497V20.2112H28.5996V3.53978H41.2927Z" fill="#2B2C84"/>
<path d="M91.8248 20.5493C89.2661 20.5493 87.1545 19.7157 85.4901 18.0484C83.8256 16.3811 82.991 14.3244 82.9863 11.8782C82.9863 9.41041 83.8201 7.35367 85.4877 5.70797C87.1553 4.06227 89.2669 3.22863 91.8225 3.20704C93.3082 3.19554 94.7712 3.56562 96.0661 4.28052C97.336 4.93826 98.3965 5.9269 99.1309 7.13774L96.2429 8.78267C95.8296 8.04341 95.2052 7.43872 94.4464 7.04288C93.6445 6.6083 92.7408 6.38661 91.8248 6.39972C90.1745 6.39972 88.8386 6.90793 87.817 7.92435C86.7954 8.94076 86.294 10.2587 86.3128 11.8782C86.3128 13.4807 86.8142 14.7917 87.817 15.8112C88.8197 16.8307 90.1557 17.3389 91.8248 17.3358C92.738 17.3491 93.6397 17.1358 94.4464 16.7158C95.2052 16.32 95.8296 15.7153 96.2429 14.976L99.1309 16.6209C98.3994 17.83 97.3518 18.8252 96.0967 19.5036C94.7873 20.2049 93.3165 20.565 91.8248 20.5493ZM111.041 8.30608V11.2582H107.253V20.2139H104.12V11.2582H100.286V8.30608H111.041ZM120.019 7.97293C120.808 7.96484 121.59 8.12441 122.311 8.44068C123.032 8.75696 123.674 9.22246 124.194 9.80525C125.355 11.005 125.983 12.6074 125.941 14.2611C125.981 15.9207 125.354 17.529 124.194 18.7378C123.671 19.3154 123.027 19.776 122.307 20.0885C121.587 20.4011 120.806 20.5582 120.019 20.5493C118.32 20.5493 117.009 19.9694 116.087 18.8096V24.9798H112.953V8.30608H116.084V9.7104C117.007 8.55054 118.318 7.97139 120.017 7.97293H120.019ZM117.032 16.6904C117.347 16.9971 117.723 17.2375 118.136 17.3966C118.549 17.5558 118.991 17.6303 119.434 17.6158C119.878 17.6301 120.32 17.5554 120.733 17.3962C121.146 17.2371 121.521 16.9969 121.837 16.6904C122.159 16.3719 122.411 15.9921 122.578 15.5743C122.745 15.1565 122.823 14.7097 122.808 14.2611C122.825 13.8158 122.748 13.3719 122.581 12.9576C122.414 12.5433 122.16 12.1678 121.837 11.8551C121.526 11.541 121.152 11.294 120.738 11.1299C120.324 10.9658 119.88 10.8881 119.434 10.9019C118.988 10.8878 118.544 10.9654 118.131 11.1295C117.717 11.2936 117.343 11.5408 117.032 11.8551C116.715 12.1714 116.468 12.5482 116.306 12.9621C116.144 13.3759 116.07 13.8181 116.089 14.2611C116.072 14.7074 116.147 15.1523 116.309 15.5696C116.471 15.9869 116.717 16.368 117.032 16.6904ZM137.613 8.30608H140.747V20.2139H137.613V18.8096C136.67 19.9694 135.352 20.5493 133.657 20.5493C132.87 20.5552 132.091 20.3967 131.371 20.0844C130.651 19.7721 130.007 19.3131 129.482 18.7378C128.336 17.5223 127.718 15.9165 127.759 14.2611C127.715 12.6115 128.334 11.0111 129.482 9.80525C130.004 9.22483 130.647 8.76096 131.367 8.44489C132.088 8.12882 132.868 7.96788 133.657 7.97293C135.358 7.97293 136.677 8.55208 137.613 9.7104V8.30608ZM131.837 16.6904C132.152 16.9971 132.528 17.2375 132.941 17.3966C133.354 17.5558 133.796 17.6303 134.24 17.6158C134.683 17.6301 135.125 17.5554 135.538 17.3962C135.951 17.2371 136.327 16.9969 136.642 16.6904C136.964 16.3719 137.217 15.9921 137.384 15.5743C137.551 15.1565 137.629 14.7097 137.613 14.2611C137.631 13.8158 137.554 13.3719 137.386 12.9576C137.219 12.5433 136.966 12.1678 136.642 11.8551C136.331 11.541 135.957 11.294 135.543 11.1299C135.13 10.9658 134.686 10.8881 134.24 10.9019C133.794 10.8878 133.35 10.9654 132.936 11.1295C132.522 11.2936 132.148 11.5408 131.837 11.8551C131.521 12.1714 131.274 12.5482 131.111 12.9621C130.949 13.3759 130.875 13.8181 130.894 14.2611C130.878 14.7074 130.953 15.1523 131.115 15.5696C131.277 15.9869 131.523 16.368 131.837 16.6904ZM155.017 20.2139H151.4L148.779 16.5955L146.131 20.2139H142.515L146.956 14.1408L142.713 8.30608H146.329L148.781 11.663L151.233 8.30608H154.821L150.578 14.1177L155.017 20.2139ZM166.307 18.7378C165.712 19.3274 165 19.7919 164.216 20.1033C163.432 20.4147 162.591 20.5665 161.745 20.5493C160.899 20.5662 160.059 20.4144 159.274 20.103C158.489 19.7916 157.777 19.3272 157.181 18.7378C156.581 18.1528 156.109 17.4544 155.792 16.6849C155.475 15.9155 155.32 15.0909 155.338 14.2611C155.319 13.4343 155.473 12.6125 155.79 11.8462C156.107 11.0799 156.581 10.3853 157.181 9.80525C157.774 9.21037 158.485 8.74092 159.27 8.4258C160.055 8.11068 160.898 7.95656 161.745 7.97293C162.593 7.95633 163.435 8.11036 164.22 8.4255C165.004 8.74064 165.715 9.21022 166.307 9.80525C166.915 10.3814 167.395 11.0746 167.717 11.8415C168.038 12.6083 168.195 13.4321 168.177 14.2611C168.194 15.0931 168.036 15.9196 167.715 16.6896C167.393 17.4596 166.914 18.1567 166.307 18.7378ZM159.39 16.6186C159.698 16.9228 160.066 17.1619 160.471 17.3211C160.877 17.4803 161.311 17.5561 161.748 17.544C162.184 17.5561 162.619 17.4803 163.024 17.3211C163.43 17.1619 163.798 16.9228 164.105 16.6186C164.418 16.3093 164.662 15.9406 164.825 15.5353C164.987 15.1299 165.063 14.6964 165.048 14.2611C165.063 13.8255 164.987 13.3916 164.825 12.9858C164.663 12.5801 164.418 12.211 164.105 11.9013C163.797 11.5976 163.429 11.3588 163.024 11.1996C162.619 11.0405 162.184 10.9644 161.748 10.9759C161.311 10.9644 160.877 11.0405 160.472 11.1996C160.066 11.3588 159.698 11.5976 159.39 11.9013C159.083 12.214 158.843 12.584 158.685 12.9894C158.527 13.3947 158.453 13.8272 158.468 14.2611C158.453 14.6946 158.527 15.1267 158.686 15.5317C158.844 15.9366 159.084 16.3063 159.39 16.6186ZM179.361 14.1177C180.494 14.6606 181.061 15.5652 181.061 16.8315C181.076 17.2923 180.988 17.7506 180.803 18.1746C180.619 18.5986 180.342 18.9779 179.993 19.2861C179.297 19.9031 178.301 20.2116 177.006 20.2116H170.622V8.30377H176.516C177.795 8.30377 178.782 8.61224 179.477 9.22918C179.827 9.53139 180.104 9.90603 180.289 10.3261C180.473 10.7462 180.561 11.2012 180.545 11.6584C180.567 12.132 180.471 12.6037 180.265 13.0324C180.058 13.4611 179.748 13.8337 179.361 14.1177ZM176.23 10.8302H173.559V12.9748H176.23C177.118 12.9748 177.563 12.617 177.565 11.9013C177.566 11.1857 177.121 10.8286 176.23 10.8302ZM176.643 17.6181C177.548 17.6181 178.001 17.2387 178.001 16.4752C178.008 16.3253 177.978 16.1759 177.915 16.0392C177.852 15.9025 177.757 15.7824 177.638 15.6886C177.349 15.485 176.998 15.3845 176.643 15.404H173.559V17.6181H176.643ZM192.486 8.30608H195.617V20.2139H192.486V18.8096C191.543 19.9694 190.224 20.5493 188.53 20.5493C187.744 20.5541 186.966 20.395 186.247 20.0828C185.529 19.7705 184.886 19.3121 184.362 18.7378C183.216 17.5223 182.598 15.9165 182.638 14.2611C182.595 12.6115 183.214 11.0111 184.362 9.80525C184.884 9.22495 185.527 8.76116 186.247 8.4451C186.967 8.12904 187.748 7.96803 188.537 7.97293C190.237 7.97293 191.556 8.55208 192.493 9.7104L192.486 8.30608ZM186.719 16.6904C187.034 16.9969 187.41 17.2371 187.823 17.3962C188.236 17.5554 188.678 17.6301 189.121 17.6158C189.565 17.6303 190.007 17.5558 190.42 17.3966C190.833 17.2375 191.209 16.9971 191.524 16.6904C191.846 16.3719 192.098 15.9921 192.265 15.5743C192.432 15.1565 192.511 14.7097 192.495 14.2611C192.513 13.8158 192.435 13.3719 192.268 12.9576C192.101 12.5433 191.847 12.1678 191.524 11.8551C191.213 11.5408 190.839 11.2936 190.425 11.1295C190.012 10.9654 189.567 10.8878 189.121 10.9019C188.676 10.8881 188.232 10.9658 187.818 11.1299C187.404 11.294 187.03 11.541 186.719 11.8551C186.402 12.1714 186.155 12.5482 185.993 12.9621C185.831 13.3759 185.757 13.8181 185.776 14.2611C185.76 14.7074 185.835 15.1523 185.997 15.5696C186.159 15.9869 186.404 16.368 186.719 16.6904ZM206.671 8.30608H209.802V20.2139H206.662V15.6886H201.831V20.2139H198.7V8.30608H201.831V12.8082H206.662L206.671 8.30608ZM221.675 8.30608H224.004V20.2139H220.939V13.4514L215.246 20.2139H212.916V8.30608H215.981V15.0709L221.675 8.30608ZM229.764 15.522C230.183 17.0135 231.323 17.76 233.184 17.7615C234.382 17.7615 235.288 17.3644 235.903 16.57L238.428 17.9998C237.23 19.6964 235.466 20.5447 233.137 20.5447C231.132 20.5447 229.521 19.9486 228.307 18.7563C227.092 17.5641 226.485 16.0642 226.487 14.2565C226.487 12.4612 227.085 10.9682 228.283 9.77749C229.481 8.58679 231.018 7.98372 232.894 7.9683C234.674 7.9683 236.138 8.57137 237.287 9.77749C237.863 10.3749 238.314 11.0779 238.614 11.8465C238.914 12.615 239.056 13.4339 239.033 14.2565C239.031 14.6794 238.991 15.1013 238.913 15.5174L229.764 15.522ZM229.714 13.1414H235.903C235.781 12.4198 235.382 11.7715 234.788 11.3299C234.241 10.9361 233.579 10.7274 232.901 10.7353C232.15 10.7061 231.412 10.9334 230.813 11.3785C230.239 11.8163 229.846 12.4422 229.705 13.1414H229.714Z" fill="#EA5614"/>
<path d="M13.1458 7.36431H0V14.7352L9.57642 23.9501V16.5791L5.25737 12.5258H12.3937L13.1458 11.7878V7.36431Z" fill="#2B2C84"/>
<path d="M15.3961 5.16151H0.1875L5.44487 0H20.6559V15.1121L11.6405 23.9567V16.5858L15.3961 12.9003V5.16151Z" fill="#EA5614"/>
</svg>
