<svg width="50" height="50" viewBox="0 0 50 50" fill="none" xmlns="http://www.w3.org/2000/svg">
<circle opacity="0.1" cx="25" cy="25" r="25" fill="#3E3E59"/>
<path d="M25 6C25 4.34315 26.3493 2.97899 27.9908 3.20423C30.7654 3.58497 33.4514 4.49339 35.9001 5.89011C39.2206 7.78412 41.9904 10.5107 43.9363 13.8011C45.8823 17.0915 46.9372 20.8322 46.9973 24.6544C47.0573 28.4767 46.1204 32.2487 44.2787 35.5986C42.4371 38.9485 39.7544 41.7607 36.495 43.7581C33.2355 45.7555 29.5119 46.8691 25.691 46.9891C21.8702 47.1092 18.084 46.2316 14.7055 44.4428C12.2142 43.1237 10.008 41.3427 8.19976 39.2039C7.13003 37.9387 7.55884 36.0685 8.95777 35.1807L23.6075 25.8837C24.4746 25.3334 25 24.3778 25 23.3507L25 6Z" fill="white"/>
</svg>
