<svg width="116" height="116" viewBox="0 0 116 116" fill="none" xmlns="http://www.w3.org/2000/svg">
<path d="M48.3333 82.6667L89.6667 41.3333L86.3333 38L48.3333 76L29.3333 57L26 60.3333L48.3333 82.6667ZM58.0283 116C50.0094 116 42.4689 114.478 35.4067 111.435C28.3444 108.392 22.2017 104.261 16.9783 99.0433C11.7539 93.8256 7.61833 87.6906 4.57167 80.6383C1.52389 73.585 0 66.0483 0 58.0283C0 50.0094 1.52167 42.4689 4.565 35.4067C7.60833 28.3444 11.7389 22.2017 16.9567 16.9783C22.1744 11.7539 28.3094 7.61833 35.3617 4.57167C42.415 1.52389 49.9517 0 57.9717 0C65.9906 0 73.5311 1.52167 80.5933 4.565C87.6556 7.60834 93.7983 11.7389 99.0217 16.9567C104.246 22.1744 108.382 28.3094 111.428 35.3617C114.476 42.415 116 49.9517 116 57.9717C116 65.9906 114.478 73.5311 111.435 80.5933C108.392 87.6556 104.261 93.7983 99.0433 99.0217C93.8256 104.246 87.6906 108.382 80.6383 111.428C73.585 114.476 66.0483 116 58.0283 116ZM58 111.333C72.8889 111.333 85.5 106.167 95.8333 95.8333C106.167 85.5 111.333 72.8889 111.333 58C111.333 43.1111 106.167 30.5 95.8333 20.1667C85.5 9.83333 72.8889 4.66667 58 4.66667C43.1111 4.66667 30.5 9.83333 20.1667 20.1667C9.83333 30.5 4.66667 43.1111 4.66667 58C4.66667 72.8889 9.83333 85.5 20.1667 95.8333C30.5 106.167 43.1111 111.333 58 111.333Z" fill="#37AE35"/>
</svg>
