<svg width="1920" height="377" viewBox="0 0 1920 377" fill="none" xmlns="http://www.w3.org/2000/svg">
<g clip-path="url(#clip0_5031_7)">
<rect width="1920" height="377" fill="#2B2C84"/>
<mask id="mask0_5031_7" style="mask-type:luminance" maskUnits="userSpaceOnUse" x="-9" y="-498" width="1938" height="1373">
<path d="M1928.67 -498H-9V874.277H1928.67V-498Z" fill="white"/>
</mask>
<g mask="url(#mask0_5031_7)">
<path d="M2262.88 -182.544C2217.06 -130.161 2167.76 -95.4411 2105.66 -64.3647C2057.96 -43.6102 2039.03 -20.8135 1988.96 19.9226C1981.01 26.3256 1974.11 32.4525 1965.33 40.1251C1965.3 40.1251 1965.27 40.1367 1965.25 40.1574C1965.23 40.1781 1965.22 40.2062 1965.22 40.2355C1933.25 68.3865 1903.55 98.9661 1871.54 127.062C1862.15 135.066 1843 155.71 1827.59 197.108C1813.46 224.818 1789.83 240.825 1755.94 271.957C1752.85 274.716 1749.75 278.249 1746.44 281.34C1740.87 286.584 1735.13 292.049 1730.27 297.569C1701.18 330.522 1682.68 366.566 1655.52 390.798C1649.01 397.532 1640.45 401.396 1632.72 405.315C1597 422.758 1541.25 434.404 1482.23 468.958C1480.85 469.841 1460.87 482.758 1453.47 488.554C1438.9 499.814 1427.8 514.717 1414.33 527.137C1376.57 564.892 1311.32 580.955 1272.51 618.876C1223.88 667.505 1196.5 716.963 1164.48 777.68C1148.64 806.715 1132.46 832.879 1112.09 858.932C1082.45 896.356 1046.84 921.471 1008.25 971.977C976.674 1011.06 938.251 1049.25 897.345 1078.51C824.199 1129.51 762.922 1178.58 746.306 1179.25C744.153 1179.25 742.607 1177.53 742 1175.49C739.24 1165.45 752.93 1152.59 761.984 1143.53C800.682 1105.45 917.715 1047.71 959.119 989.42C974.741 967.065 993.676 943.771 1007.37 920.036C1034.64 873.394 1050.59 853.412 1081.51 828.187C1092.28 819.122 1102.5 809.407 1112.09 799.097C1119.71 790.983 1127.05 784.967 1133.45 777.736C1225.42 672.694 1205 647.358 1228.24 626.935C1310.38 556.226 1377.57 532.16 1412.29 503.954C1427.25 491.479 1437.24 473.54 1452.59 461.065C1473.46 444.174 1594.08 391.571 1640.73 353.815C1644.34 350.906 1647.77 347.772 1650.99 344.432C1659.77 335.103 1670.59 318.323 1681.03 297.569C1701.89 256.391 1725.96 200.144 1755.88 159.629C1770.73 139.426 1787.02 123.143 1804.85 114.808C1805.33 114.666 1805.83 114.638 1806.32 114.727C1806.81 114.816 1807.28 115.02 1807.67 115.32C1808.07 115.621 1808.39 116.011 1808.61 116.459C1808.83 116.907 1808.94 117.401 1808.93 117.899C1802.09 148.258 1775.37 173.207 1755.88 193.851C1741.36 209.252 1730.21 222.72 1735.02 230.227C1739.87 237.513 1751.69 225.811 1755.88 221.671C1784.53 196.943 1832.23 130.429 1865.52 101.781C1870.6 97.4206 1877.94 89.4721 1882.63 84.7802C1902.4 62.0939 1915.26 42.5538 1940.6 19.9778C2013.52 -45.0454 2053.54 -44.383 2133.2 -106.867C2163.37 -130.489 2192.19 -155.772 2219.54 -182.599C2253.55 -216.27 2274.09 -243.041 2273.87 -253.418C2273.87 -255.902 2272.71 -257.392 2270.22 -257.889C2269.56 -257.999 2266.47 -257.226 2264.43 -255.846C2246.15 -243.537 2221.86 -215.221 2189.02 -182.599C2170.19 -163.887 2148.61 -143.684 2123.99 -124.31C2109.71 -113.099 2094.34 -103.353 2078.11 -95.2203C1971.18 -41.4023 1920.23 -20.9791 1874.68 16.0036C1871.98 18.2115 1868.89 19.8123 1865.79 21.4682C1828.15 38.9108 1785.91 78.2669 1755.83 110.447C1739.05 128.497 1726.07 144.229 1719.89 152.784C1702.22 177.402 1668.99 240.494 1618.92 297.569C1573.1 349.951 1523.8 384.671 1461.7 415.747C1414 436.502 1395.07 459.298 1345 500.035C1337.05 506.438 1330.15 512.565 1321.37 520.237C1321.34 520.237 1321.31 520.249 1321.29 520.269C1321.27 520.29 1321.26 520.318 1321.26 520.347C1289.3 548.498 1259.6 579.078 1227.58 607.174C1218.19 615.178 1199.04 635.822 1183.63 677.22C1169.5 704.929 1145.87 720.937 1111.98 752.069C1108.89 754.829 1105.8 758.361 1102.48 761.452C1096.91 766.696 1091.17 772.161 1086.31 777.68C1057.22 810.634 1038.72 846.678 1011.56 870.91C1005.05 877.644 996.492 881.508 988.763 885.427C953.046 902.87 897.29 914.516 838.276 949.07C836.896 949.953 816.912 962.87 809.515 968.665C794.941 979.926 783.845 994.829 770.375 1007.25C732.615 1045 667.364 1061.07 628.555 1098.99C579.92 1147.62 552.539 1197.07 520.52 1257.79H628.555C676.252 1232.95 732.284 1228.15 781.637 1207.01C814.262 1192 838.828 1164.34 864.333 1139.94C889.23 1116.15 919.371 1098.71 947.857 1079.72C983.188 1051.52 1016.86 1019.12 1042.2 981.416C1050.76 969.438 1061.85 959.447 1073.23 950.174C1086.09 939.631 1099.5 929.64 1112.03 918.711C1127.66 905.464 1132.9 911.039 1226.25 814.994C1237.18 803.789 1245.19 795.73 1255.79 787.947C1261.14 784.304 1266.83 780.44 1272.46 777.57C1320.16 752.731 1376.19 747.929 1425.54 726.788C1458.17 711.774 1482.73 684.12 1508.24 659.722C1533.13 635.932 1563.27 618.49 1591.76 599.501C1627.09 571.295 1660.77 538.894 1686.1 501.194C1694.66 489.216 1705.76 479.225 1717.13 469.952C1729.99 459.409 1743.41 449.418 1755.94 438.489C1771.56 425.241 1776.81 430.816 1870.16 334.772C1881.09 323.567 1889.09 315.508 1899.69 307.725C1905.04 304.082 1910.73 300.218 1916.36 297.348C1964.06 272.509 2020.09 267.706 2069.44 246.566C2102.07 231.552 2126.64 203.897 2152.14 179.5C2177.04 155.71 2207.18 138.267 2235.66 119.279C2270.99 91.0729 2304.67 58.6716 2330.01 20.9714C2338.56 8.99343 2349.66 -0.997388 2361.03 -10.2706C2373.9 -20.8135 2387.31 -30.8043 2399.84 -41.7335V-101.623C2370.2 -64.1991 2334.59 -39.084 2296 11.4221C2264.43 50.5023 2226 88.6993 2185.1 117.954C2111.95 168.957 2050.67 218.028 2034.06 218.691C2031.9 218.691 2030.36 216.979 2029.81 214.937C2027.05 204.891 2040.74 192.03 2049.79 182.977C2088.49 144.891 2205.52 87.1538 2246.93 28.8647C2262.55 6.50955 2281.48 -16.784 2295.17 -40.5192C2322.44 -87.1615 2338.4 -107.143 2369.31 -132.369C2380.09 -141.433 2390.3 -151.148 2399.9 -161.458V-208.487C2396.81 -205.727 2393.71 -202.194 2390.4 -199.103C2384.83 -193.859 2379.08 -188.395 2374.23 -182.875C2345.13 -149.922 2326.64 -113.877 2299.48 -89.6454C2292.97 -82.9112 2284.41 -79.0473 2276.68 -75.1283C2240.96 -57.6857 2185.21 -46.039 2126.19 -11.485C2124.81 -10.6571 2104.83 2.31445 2097.43 8.11024C2082.86 19.3706 2071.76 34.2741 2058.29 46.6936C2020.53 84.4491 1955.28 100.512 1916.47 138.433C1867.84 187.062 1840.46 236.519 1808.44 297.237C1792.59 326.271 1776.42 352.435 1756.05 378.489C1726.4 415.913 1690.8 441.028 1652.21 491.534C1620.63 530.614 1582.21 568.811 1541.3 598.066C1468.16 649.069 1406.88 698.14 1390.26 698.803C1388.11 698.803 1386.57 697.091 1385.96 695.049C1383.2 685.003 1396.89 672.142 1405.94 663.089C1444.64 625.003 1561.67 567.266 1603.08 508.977C1618.7 486.622 1637.64 463.328 1651.33 439.593C1678.6 392.951 1694.55 372.969 1725.47 347.743C1736.24 338.679 1746.46 328.964 1756.05 318.654C1763.67 310.54 1771.01 304.523 1777.41 297.293C1869.38 192.251 1848.96 166.915 1872.2 146.492C1954.34 75.7829 2021.53 51.7167 2056.25 23.5105C2071.21 11.0357 2081.2 -6.90357 2096.55 -19.3783C2117.42 -36.2689 2238.04 -88.8726 2284.69 -126.628C2288.3 -129.537 2291.73 -132.672 2294.95 -136.012C2303.73 -145.34 2314.55 -162.12 2324.98 -182.875C2345.85 -224.052 2369.92 -280.299 2399.84 -320.814V-369.996C2383.06 -351.946 2370.09 -336.215 2363.9 -327.659C2346.24 -302.765 2312.95 -239.673 2262.88 -182.544ZM605.424 1221.97C598.358 1227.88 582.956 1243.99 582.349 1244.77C576.884 1250.23 561.151 1253.87 562.862 1241.56C564.463 1233.01 579.313 1216.84 586.82 1202.87C605.866 1170.41 628.5 1134.65 663.389 1117.31C681.661 1108.21 700.155 1104.67 724.224 1092.58C766.014 1071.72 798.087 1040.59 829.278 1006.2C837.172 998.307 844.294 989.42 851.525 980.864C875.374 957.019 912.36 946.642 941.784 931.352C961.768 917.442 988.156 898.509 990.53 910.266C990.53 913.026 987.77 916.338 983.243 920.202C971.484 929.917 948.078 942.778 930.191 957.184C920.917 964.691 915.065 973.412 908.496 983.293C885.476 1016.96 834.357 1020 759.941 1111.52C740.068 1135.75 714.784 1154.19 688.396 1170.63C656.985 1190.06 631.315 1200.44 605.424 1221.97ZM1850.61 281.175C1852.21 272.619 1867.06 256.446 1874.57 242.481C1893.62 210.024 1916.25 174.256 1951.14 156.924C1969.41 147.816 1987.91 144.284 2011.98 132.195C2053.77 111.33 2085.84 80.1988 2117.03 45.8105C2124.92 37.9172 2132.05 29.0303 2139.28 20.4746C2163.13 -3.37093 2200.11 -13.7481 2229.54 -29.038C2249.52 -42.9479 2275.91 -61.8808 2278.28 -50.1236C2278.28 -47.3637 2275.52 -44.0519 2270.99 -40.188C2259.24 -30.4731 2235.83 -17.612 2217.94 -3.20535C2208.67 4.30158 2202.82 13.0229 2196.25 22.9033C2173.23 56.5741 2122.11 59.61 2047.69 151.128C2027.82 175.36 2002.54 193.796 1976.15 210.245C1944.68 229.73 1919.01 240.107 1893.18 261.579C1886.11 267.486 1870.71 283.603 1870.1 284.376C1864.64 289.786 1848.85 293.484 1850.61 281.175ZM1627.15 439.979C1615.39 449.694 1591.98 462.555 1574.09 476.962C1564.82 484.469 1558.97 493.19 1552.4 503.07C1529.38 536.741 1478.26 539.777 1403.84 631.295C1383.97 655.527 1358.69 673.964 1332.3 690.412C1300.83 709.897 1275.16 720.275 1249.33 741.747C1242.26 747.653 1226.86 763.771 1226.25 764.543C1220.79 770.008 1205.05 773.651 1206.77 761.342C1208.37 752.786 1223.22 736.613 1230.72 722.648C1249.77 690.192 1272.4 654.423 1307.29 637.091C1325.56 627.984 1344.06 624.451 1368.13 612.362C1409.92 591.498 1441.99 560.366 1473.18 525.978C1481.08 518.084 1488.2 509.198 1495.43 500.642C1519.28 476.796 1556.26 466.419 1585.69 451.129C1605.67 437.219 1632.06 418.286 1634.43 430.044C1634.43 432.804 1631.67 436.115 1627.15 439.979Z" fill="#222374"/>
<path d="M2049.76 -296.859C2088.46 -334.945 2205.49 -392.682 2246.9 -450.971C2262.52 -473.326 2281.46 -496.62 2295.15 -520.355C2322.42 -566.997 2338.37 -586.979 2369.29 -612.205C2380.06 -621.269 2390.28 -630.984 2399.87 -641.294V-662.661H2374.2C2345.11 -629.708 2326.61 -593.664 2299.45 -569.432C2292.94 -562.698 2284.38 -558.834 2276.65 -554.915C2240.94 -537.472 2185.18 -525.825 2126.17 -491.271C2124.79 -490.443 2104.8 -477.472 2097.4 -471.676C2082.83 -460.416 2071.73 -445.512 2058.26 -433.093C2020.5 -395.337 1955.25 -379.275 1916.44 -341.354C1867.81 -292.724 1840.43 -243.267 1808.41 -182.549C1792.57 -153.515 1776.39 -127.351 1756.02 -101.298C1726.38 -63.8734 1690.77 -38.7583 1652.18 11.7479C1620.6 50.828 1582.18 89.025 1541.28 118.28C1468.13 169.283 1406.85 218.354 1390.24 219.016C1388.08 219.016 1386.54 217.305 1385.93 215.263C1383.17 205.217 1396.86 192.356 1405.91 183.303C1444.61 145.217 1561.65 87.4795 1603.05 29.1904C1618.67 6.83523 1637.61 -16.4584 1651.3 -40.1935C1678.57 -86.8358 1694.52 -106.817 1725.44 -132.043C1736.21 -141.108 1746.43 -150.822 1756.02 -161.132C1763.64 -169.246 1770.98 -175.263 1777.38 -182.494C1869.36 -287.536 1848.93 -312.872 1872.17 -333.295C1954.31 -404.003 2021.5 -428.07 2056.22 -456.276C2071.18 -468.751 2081.17 -486.69 2096.52 -499.165C2117.39 -516.055 2238.01 -568.659 2284.66 -606.414C2288.27 -609.324 2291.7 -612.458 2294.93 -615.798C2303.7 -625.126 2314.52 -641.907 2324.96 -662.661H2262.91C2217.09 -610.278 2167.79 -575.559 2105.68 -544.482C2057.99 -523.728 2039.05 -500.931 1988.98 -460.195C1981.03 -453.792 1974.13 -447.665 1965.36 -439.992C1965.33 -439.992 1965.3 -439.981 1965.28 -439.96C1965.26 -439.939 1965.25 -439.911 1965.25 -439.882C1933.28 -411.731 1903.58 -381.151 1871.56 -353.056C1862.18 -345.052 1843.02 -324.408 1827.62 -283.009C1813.49 -255.3 1789.86 -239.293 1755.97 -208.161C1752.87 -205.401 1749.78 -201.868 1746.47 -198.777C1740.89 -193.533 1735.15 -188.069 1730.3 -182.549C1701.2 -149.596 1682.71 -113.552 1655.55 -89.3197C1649.03 -82.5855 1640.48 -78.7217 1632.75 -74.8026C1597.03 -57.36 1541.28 -45.7132 1482.26 -11.1593C1480.88 -10.3313 1460.9 2.64019 1453.5 8.43598C1438.93 19.6964 1427.83 34.5998 1414.36 47.0193C1376.6 84.7747 1311.35 100.837 1272.54 138.758C1223.91 187.388 1196.52 236.845 1164.51 297.563C1148.66 326.597 1132.49 352.761 1112.12 378.814C1082.47 416.239 1046.87 441.354 1008.28 491.86C976.701 530.94 938.279 569.137 897.373 598.392C824.227 649.395 762.95 698.466 746.333 699.128C744.18 699.128 742.635 697.417 742.028 695.375C739.267 685.329 752.958 672.468 762.011 663.415C800.71 625.329 917.743 567.591 959.146 509.302C974.769 486.947 993.704 463.654 1007.39 439.919C1034.67 393.276 1050.62 373.295 1081.53 348.069C1092.31 339.004 1102.52 329.29 1112.12 318.98C1119.74 310.866 1127.08 304.849 1133.48 297.618C1225.45 192.576 1205.03 167.241 1228.27 146.817C1310.41 76.1087 1377.59 52.0423 1412.32 23.8362C1427.28 11.3614 1437.27 -6.5779 1452.62 -19.0526C1473.48 -35.9432 1594.11 -88.5469 1640.75 -126.302C1644.37 -129.212 1647.8 -132.346 1651.02 -135.686C1659.8 -145.014 1670.62 -161.795 1681.05 -182.549C1701.92 -223.727 1725.99 -279.973 1755.91 -320.489C1770.76 -340.691 1787.05 -356.975 1804.88 -365.31C1805.35 -365.452 1805.86 -365.479 1806.35 -365.39C1806.84 -365.301 1807.3 -365.098 1807.7 -364.797C1808.1 -364.496 1808.42 -364.106 1808.64 -363.658C1808.86 -363.21 1808.97 -362.717 1808.96 -362.218C1802.12 -331.86 1775.4 -306.91 1755.91 -286.266C1741.39 -270.866 1730.24 -257.397 1735.04 -249.891C1739.9 -242.604 1751.71 -254.306 1755.91 -258.446C1784.56 -283.175 1832.26 -349.689 1865.55 -378.336C1870.62 -382.697 1877.97 -390.645 1882.66 -395.337C1902.42 -418.024 1915.29 -437.564 1940.62 -460.14C2013.55 -525.163 2053.57 -524.501 2133.23 -586.985C2163.4 -610.607 2192.22 -635.89 2219.57 -662.716H2189.1C2170.27 -644.004 2148.69 -623.802 2124.07 -604.427C2109.79 -593.216 2094.42 -583.471 2078.19 -575.338C1971.26 -521.52 1920.31 -501.097 1874.77 -464.114C1872.06 -461.906 1868.97 -460.305 1865.88 -458.649C1828.23 -441.207 1786 -401.851 1755.91 -369.67C1739.13 -351.62 1726.16 -335.889 1719.97 -327.333C1702.31 -302.715 1669.07 -239.624 1619 -182.549C1573.18 -130.166 1523.89 -95.4466 1461.78 -64.3702C1414.08 -43.6157 1395.15 -20.819 1345.08 19.9171C1337.13 26.3201 1330.23 32.447 1321.45 40.1196C1321.42 40.1196 1321.39 40.1312 1321.37 40.1519C1321.35 40.1726 1321.34 40.2007 1321.34 40.23C1289.38 68.381 1259.68 98.9606 1227.66 127.056C1218.28 135.06 1199.12 155.704 1183.72 197.103C1169.59 224.812 1145.96 240.819 1112.06 271.951C1108.97 274.711 1105.88 278.244 1102.57 281.335C1096.99 286.579 1091.25 292.043 1086.39 297.563C1057.3 330.516 1038.81 366.56 1011.65 390.792C1005.13 397.527 996.575 401.39 988.846 405.309C953.129 422.752 897.373 434.399 838.359 468.953C836.979 469.836 816.995 482.752 809.598 488.548C795.024 499.808 783.928 514.712 770.458 527.131C732.698 564.887 667.446 580.949 628.638 618.87C580.003 667.5 552.621 716.957 520.603 777.675C504.759 806.709 488.584 832.873 468.214 858.927C438.569 896.351 402.962 921.466 364.375 971.972C332.798 1011.05 294.376 1049.25 253.469 1078.5C180.323 1129.51 119.047 1178.58 102.43 1179.24C100.277 1179.24 98.7314 1177.53 98.1793 1175.49C95.4191 1165.44 109.11 1152.58 118.163 1143.53C156.862 1105.44 273.895 1047.7 315.298 989.414C330.921 967.059 349.856 943.766 363.547 920.031C390.818 873.388 406.772 853.407 437.686 828.181C448.463 819.116 458.677 809.402 468.269 799.092C475.887 790.978 483.23 784.961 489.633 777.73C581.604 672.688 561.178 647.353 584.419 626.929C666.563 556.221 733.747 532.154 768.47 503.948C783.431 491.474 793.423 473.534 808.77 461.059C829.637 444.169 950.258 391.565 996.906 353.81C1000.52 350.9 1003.95 347.766 1007.17 344.426C1015.95 335.098 1026.77 318.317 1037.21 297.563C1058.07 256.385 1082.14 200.139 1112.06 159.623C1126.91 139.421 1143.2 123.137 1161.03 114.802C1161.51 114.66 1162.01 114.633 1162.5 114.722C1162.99 114.811 1163.46 115.014 1163.85 115.315C1164.25 115.616 1164.57 116.006 1164.79 116.454C1165.01 116.902 1165.12 117.395 1165.11 117.894C1158.27 148.252 1131.55 173.202 1112.06 193.846C1097.54 209.246 1086.39 222.715 1091.19 230.221C1096.05 237.508 1107.87 225.806 1112.06 221.666C1140.71 196.937 1188.41 130.423 1221.7 101.776C1226.78 97.4151 1234.12 89.4666 1238.81 84.7747C1258.57 62.0884 1271.44 42.5483 1296.78 19.9723C1369.7 -45.0509 1409.72 -44.3885 1489.38 -106.873C1519.55 -130.495 1548.37 -155.778 1575.72 -182.604C1609.73 -216.275 1630.27 -243.046 1630.04 -253.423C1630.04 -255.907 1628.89 -257.397 1626.4 -257.894C1625.74 -258.005 1622.65 -257.232 1620.6 -255.852C1602.33 -243.543 1578.04 -215.226 1545.2 -182.604C1526.37 -163.892 1504.79 -143.69 1480.16 -124.315C1465.89 -113.104 1450.52 -103.359 1434.29 -95.2258C1327.36 -41.4078 1276.41 -20.9846 1230.86 15.9981C1228.16 18.206 1225.07 19.8068 1221.97 21.4627C1184.32 38.9053 1142.09 78.2614 1112.01 110.442C1095.22 128.492 1082.25 144.223 1076.07 152.779C1058.4 177.397 1025.17 240.488 975.1 297.563C929.281 349.946 879.983 384.665 817.878 415.742C770.182 436.496 751.247 459.293 701.176 500.029C693.227 506.432 686.326 512.559 677.549 520.232C677.52 520.232 677.492 520.243 677.471 520.264C677.45 520.285 677.438 520.313 677.438 520.342C645.475 548.493 615.775 579.073 583.757 607.168C574.372 615.172 555.216 635.816 539.814 677.215C525.682 704.924 502.054 720.932 468.159 752.063C465.067 754.823 461.976 758.356 458.664 761.447C453.088 766.691 447.347 772.155 442.489 777.675C413.396 810.628 394.903 846.672 367.742 870.904C361.228 877.638 352.671 881.502 344.943 885.422C309.226 902.864 253.469 914.511 194.456 949.065C193.076 949.948 173.092 962.864 165.694 968.66C151.12 979.92 140.024 994.824 126.554 1007.24C88.7945 1045 23.5431 1061.06 -15.2656 1098.98C-63.9006 1147.61 -91.282 1197.07 -123.301 1257.79H-15.2105C32.4861 1232.95 88.5185 1228.15 137.871 1207C170.497 1191.99 195.063 1164.34 220.567 1139.94C245.464 1116.15 275.606 1098.71 304.092 1079.72C339.422 1051.51 373.097 1019.11 398.436 981.411C406.992 969.433 418.088 959.442 429.46 950.169C442.323 939.626 455.738 929.635 468.269 918.706C483.892 905.458 489.136 911.033 582.487 814.989C593.417 803.784 601.422 795.725 612.021 787.942C617.376 784.299 623.062 780.435 628.693 777.564C676.39 752.725 732.422 747.923 781.775 726.782C814.4 711.768 838.966 684.114 864.471 659.717C889.368 635.926 919.509 618.484 947.995 599.496C983.326 571.29 1017 538.889 1042.34 501.188C1050.9 489.21 1061.99 479.22 1073.36 469.946C1086.23 459.403 1099.64 449.413 1112.17 438.483C1127.8 425.236 1133.04 430.811 1226.39 334.766C1237.32 323.561 1245.33 315.502 1255.92 307.719C1261.28 304.076 1266.97 300.212 1272.6 297.342C1320.29 272.503 1376.33 267.701 1425.68 246.56C1458.3 231.546 1482.87 203.892 1508.37 179.494C1533.27 155.704 1563.41 138.262 1591.9 119.274C1627.23 91.0674 1660.9 58.6661 1686.24 20.9659C1694.8 8.98793 1705.9 -1.00289 1717.27 -10.2761C1730.13 -20.819 1743.54 -30.8098 1756.08 -41.739C1771.7 -54.9865 1776.94 -49.4115 1870.29 -145.456C1881.22 -156.661 1889.23 -164.72 1899.83 -172.503C1905.18 -176.146 1910.87 -180.01 1916.5 -182.88C1964.2 -207.719 2020.23 -212.522 2069.58 -233.662C2102.21 -248.676 2126.77 -276.33 2152.28 -300.728C2177.17 -324.518 2207.32 -341.961 2235.8 -360.949C2271.13 -389.155 2304.81 -421.556 2330.15 -459.257C2338.7 -471.234 2349.8 -481.225 2361.17 -490.499C2374.03 -501.041 2387.45 -511.032 2399.98 -521.961V-581.459C2370.33 -544.035 2334.73 -518.92 2296.14 -468.414C2264.56 -429.334 2226.14 -391.137 2185.23 -361.882C2112.09 -310.879 2050.81 -261.808 2034.2 -261.145C2032.04 -261.145 2030.5 -262.857 2029.94 -264.899C2026.96 -274.945 2040.71 -287.806 2049.76 -296.859ZM-38.4514 1221.97C-45.5176 1227.88 -60.9196 1243.99 -61.5268 1244.77C-66.9921 1250.23 -82.7253 1253.87 -81.014 1241.56C-79.4131 1233.01 -64.5631 1216.84 -57.0553 1202.87C-38.0098 1170.41 -15.376 1134.65 19.5132 1117.31C37.7858 1108.21 56.2792 1104.67 80.3483 1092.58C122.138 1071.72 154.212 1040.59 185.402 1006.2C193.296 998.307 200.418 989.42 207.65 980.864C231.498 957.019 268.485 946.642 297.909 931.352C317.893 917.442 344.28 898.509 346.654 910.266C346.654 913.026 343.894 916.338 339.367 920.202C327.609 929.917 304.202 942.778 286.316 957.184C277.041 964.691 271.19 973.412 264.62 983.293C241.6 1016.96 190.481 1020 116.065 1111.52C96.1919 1135.75 70.9084 1154.19 44.5207 1170.64C13.1095 1190.06 -12.5606 1200.44 -38.4514 1221.97ZM605.452 741.747C598.386 747.653 582.984 763.771 582.377 764.543C576.911 770.008 561.178 773.651 562.889 761.342C564.49 752.786 579.34 736.613 586.848 722.648C605.894 690.192 628.527 654.423 663.416 637.091C681.689 627.984 700.183 624.451 724.252 612.362C766.041 591.498 798.115 560.366 829.306 525.978C837.2 518.084 844.321 509.197 851.553 500.642C875.401 476.796 912.388 466.419 941.812 451.129C961.796 437.219 988.184 418.287 990.557 430.044C990.557 432.804 987.797 436.115 983.271 439.979C971.512 449.694 948.105 462.555 930.219 476.962C920.945 484.469 915.093 493.19 908.524 503.07C885.504 536.741 834.384 539.777 759.969 631.296C740.095 655.527 714.812 673.964 688.424 690.413C657.013 709.897 631.343 720.275 605.452 741.747ZM1249.3 261.579C1242.23 267.486 1226.83 283.603 1226.22 284.376C1220.76 289.841 1205.03 293.484 1206.74 281.175C1208.34 272.619 1223.19 256.446 1230.7 242.481C1249.74 210.025 1272.38 174.256 1307.26 156.924C1325.54 147.816 1344.03 144.284 1368.1 132.195C1409.89 111.331 1441.96 80.1988 1473.15 45.8105C1481.05 37.9172 1488.17 29.0303 1495.4 20.4746C1519.25 -3.3709 1556.24 -13.7481 1585.66 -29.0379C1605.64 -42.9478 1632.03 -61.8808 1634.41 -50.1236C1634.41 -47.3637 1631.65 -44.0518 1627.12 -40.188C1615.36 -30.4731 1591.95 -17.612 1574.07 -3.20532C1564.79 4.3016 1558.94 13.0229 1552.37 22.9033C1529.35 56.5741 1478.23 59.61 1403.82 151.128C1383.94 175.36 1358.66 193.796 1332.27 210.245C1300.86 229.73 1275.19 240.107 1249.3 261.579ZM1976.18 -269.922C1944.71 -250.437 1919.04 -240.06 1893.2 -218.588C1886.14 -212.682 1870.74 -196.564 1870.13 -195.791C1864.66 -190.326 1848.93 -186.683 1850.64 -198.993C1852.24 -207.548 1867.09 -223.721 1874.6 -237.686C1893.65 -270.143 1916.28 -305.911 1951.17 -323.243C1969.44 -332.351 1987.93 -335.884 2012 -347.972C2053.79 -368.837 2085.87 -399.968 2117.06 -434.357C2124.95 -442.25 2132.07 -451.137 2139.3 -459.693C2163.15 -483.538 2200.14 -493.915 2229.56 -509.205C2249.55 -523.115 2275.94 -542.048 2278.31 -530.291C2278.31 -527.531 2275.55 -524.219 2271.02 -520.355C2259.26 -510.64 2235.86 -497.779 2217.97 -483.373C2208.7 -475.866 2202.84 -467.144 2196.28 -457.264C2173.26 -423.593 2122.14 -420.557 2047.72 -329.039C2027.87 -304.862 2002.54 -286.426 1976.15 -269.922H1976.18Z" fill="#222374"/>
<path d="M2257.47 -329.481C2246.65 -315.694 2233.68 -303.746 2219.05 -294.099C2174.55 -264.678 2158.21 -270.364 2074.25 -190.989C2071.27 -188.229 2068.17 -185.193 2065.03 -182.544C2062.65 -180.501 2060.33 -178.348 2057.85 -176.472C2015.84 -143.85 1916.36 -74.6867 1900.41 -79.5993C1900.19 -79.6674 1900 -79.7781 1899.83 -79.9245C1899.66 -80.071 1899.52 -80.2502 1899.42 -80.4514C1899.32 -80.6527 1899.27 -80.8717 1899.26 -81.0952C1899.25 -81.3187 1899.28 -81.5422 1899.36 -81.752C1910.57 -121.771 2002.37 -156.932 2012.64 -171.89C2013.41 -172.939 2013.69 -176.141 2009.44 -176.141C1910.95 -178.072 1902.51 -99.9122 1873.8 -73.5828C1873.14 -73.1412 1780.12 -16.2872 1755.94 11.0358C1753.56 13.6301 1751.96 16.3899 1749.53 20.2538C1723.09 61.6523 1685.88 58.7269 1613.57 150.742C1602.75 164.529 1589.77 176.477 1575.14 186.124C1530.65 215.544 1514.31 209.859 1430.34 289.234C1427.36 291.993 1424.27 295.029 1421.12 297.679C1418.75 299.721 1416.43 301.874 1413.95 303.751C1371.94 336.373 1272.46 405.536 1256.5 400.623C1256.29 400.555 1256.09 400.444 1255.92 400.298C1255.76 400.151 1255.62 399.972 1255.52 399.771C1255.42 399.57 1255.37 399.351 1255.35 399.127C1255.34 398.904 1255.38 398.68 1255.46 398.47C1266.66 358.452 1358.47 323.291 1368.73 308.332C1369.51 307.283 1369.78 304.082 1365.53 304.082C1267.05 302.15 1258.6 380.31 1229.9 406.64C1229.23 407.081 1136.21 463.935 1112.03 491.258C1109.66 493.852 1108.06 496.612 1105.63 500.476C1079.19 541.875 1041.98 538.949 969.663 630.964C958.846 644.751 945.871 656.699 931.24 666.346C886.746 695.767 870.405 690.081 786.439 769.456C783.458 772.216 780.367 775.252 777.22 777.901C774.847 779.944 772.528 782.096 770.044 783.973C728.033 816.595 628.555 885.758 612.601 880.846C612.39 880.774 612.195 880.662 612.028 880.514C611.861 880.367 611.725 880.188 611.627 879.988C611.529 879.788 611.473 879.57 611.46 879.348C611.447 879.126 611.478 878.903 611.552 878.693C622.759 838.674 714.563 803.513 724.831 788.555C725.604 787.506 725.88 784.304 721.629 784.304C623.145 782.372 614.699 860.533 585.992 886.862C585.33 887.304 492.311 944.158 468.131 971.481C465.757 974.075 464.157 976.835 461.728 980.699C435.285 1022.1 398.077 1019.17 325.759 1111.19C314.942 1124.97 301.967 1136.92 287.337 1146.57C242.842 1175.99 226.502 1170.3 142.536 1249.68C139.555 1252.44 136.464 1255.47 133.317 1258.12H187.859C258.244 1201.21 279.94 1196.19 333.101 1160.7C348.935 1150.01 363.188 1137.15 375.443 1122.5C405.364 1086.62 435.395 1058.69 468.076 1026.02C500.757 993.339 548.067 959.558 587.097 925.17C618.839 900.054 663.665 896.411 740.233 849.879C755.291 840.747 769.531 830.331 782.796 818.748C801.179 802.685 817.795 789.106 831.652 777.901C902.037 720.992 923.733 715.969 976.894 680.477C992.728 669.79 1006.98 656.932 1019.24 642.28C1049.16 606.401 1079.19 578.471 1111.87 545.794C1144.55 513.117 1191.86 479.335 1230.89 444.947C1262.63 419.832 1307.46 416.189 1384.03 369.657C1399.08 360.524 1413.32 350.108 1426.59 338.525C1444.97 322.463 1461.59 308.884 1475.44 297.679C1545.83 240.77 1567.53 235.747 1620.69 200.254C1636.52 189.568 1650.77 176.71 1663.03 162.057C1692.95 126.179 1722.98 98.2486 1755.66 65.5714C1792.37 28.8647 1835.65 -0.887014 1874.68 -35.2754C1906.43 -60.3904 1951.25 -64.0335 2027.82 -110.565C2042.88 -119.698 2057.12 -130.114 2070.38 -141.697C2088.76 -157.76 2105.38 -171.338 2119.24 -182.544C2189.62 -239.453 2211.32 -244.476 2264.48 -279.968C2280.31 -290.654 2294.57 -303.513 2306.82 -318.165C2336.74 -354.044 2366.77 -381.974 2399.45 -414.651V-469.187C2397.08 -466.592 2395.48 -463.832 2393.05 -459.969C2366.99 -418.57 2329.73 -421.44 2257.47 -329.481Z" fill="#222374"/>
<path d="M2262.88 297.624C2217.06 350.006 2167.76 384.726 2105.66 415.803C2057.96 436.557 2039.03 459.354 1988.96 500.09C1981.01 506.493 1974.11 512.62 1965.33 520.292C1965.3 520.292 1965.27 520.304 1965.25 520.325C1965.23 520.345 1965.22 520.373 1965.22 520.403C1933.25 548.554 1903.55 579.133 1871.54 607.229C1862.15 615.233 1843 635.877 1827.59 677.275C1813.46 704.985 1789.83 720.992 1755.94 752.124C1752.85 754.884 1749.75 758.416 1746.44 761.507C1740.87 766.751 1735.13 772.216 1730.27 777.736C1701.18 810.689 1682.68 846.733 1655.52 870.965C1649.01 877.699 1640.45 881.563 1632.72 885.482C1597 902.925 1541.25 914.571 1482.23 949.125C1480.85 950.009 1460.87 962.925 1453.47 968.721C1438.9 979.981 1427.8 994.884 1414.33 1007.3C1376.57 1045.06 1311.32 1061.12 1272.51 1099.04C1223.82 1147.84 1196.5 1197.24 1164.48 1257.96H1272.51C1320.21 1233.12 1376.24 1228.32 1425.6 1207.18C1458.22 1192.16 1482.79 1164.51 1508.29 1140.11C1533.19 1116.32 1563.33 1098.88 1591.82 1079.89C1627.15 1051.68 1660.82 1019.28 1686.16 981.582C1694.72 969.604 1705.81 959.613 1717.18 950.34C1730.05 939.797 1743.46 929.806 1755.99 918.877C1771.62 905.629 1776.86 911.204 1870.21 815.16C1881.14 803.955 1889.15 795.896 1899.75 788.113C1905.1 784.47 1910.79 780.606 1916.42 777.736C1964.11 752.897 2020.15 748.094 2069.5 726.954C2102.12 711.94 2126.69 684.285 2152.19 659.888C2177.09 636.098 2207.23 618.655 2235.72 599.667C2271.05 571.461 2304.72 539.06 2330.06 501.359C2338.62 489.381 2349.72 479.391 2361.09 470.117C2373.95 459.574 2387.37 449.584 2399.9 438.654V378.765C2370.25 416.189 2334.65 441.304 2296.06 491.81C2264.48 530.89 2226.06 569.087 2185.15 598.342C2112.01 649.345 2050.73 698.416 2034.11 699.079C2031.96 699.079 2030.41 697.367 2029.86 695.325C2027.1 685.279 2040.79 672.418 2049.85 663.365C2088.54 625.279 2205.58 567.542 2246.98 509.253C2262.6 486.898 2281.54 463.604 2295.23 439.869C2322.5 393.226 2338.45 373.245 2369.37 348.019C2380.15 338.955 2390.36 329.24 2399.95 318.93V271.901C2396.86 274.661 2393.77 278.194 2390.46 281.285C2384.88 286.529 2379.14 291.993 2374.28 297.513C2345.19 330.466 2326.7 366.511 2299.54 390.743C2293.02 397.477 2284.46 401.341 2276.74 405.26C2241.02 422.702 2185.26 434.349 2126.25 468.903C2124.87 469.786 2104.88 482.702 2097.49 488.498C2082.91 499.759 2071.82 514.662 2058.35 527.082C2020.59 564.837 1955.34 580.9 1916.53 618.821C1867.89 667.45 1840.51 716.907 1808.49 777.625C1792.65 806.659 1776.47 832.823 1756.1 858.877C1726.46 896.301 1690.85 921.416 1652.26 971.922C1620.69 1011 1582.27 1049.2 1541.36 1078.45C1468.21 1129.46 1406.94 1178.53 1390.32 1179.19C1388.17 1179.19 1386.62 1177.48 1386.01 1175.44C1383.25 1165.39 1396.94 1152.53 1406 1143.48C1444.7 1105.39 1561.73 1047.65 1603.13 989.365C1618.76 967.009 1637.69 943.716 1651.38 919.981C1678.65 873.339 1694.61 853.357 1725.52 828.131C1736.3 819.067 1746.51 809.352 1756.1 799.042C1763.72 790.928 1771.06 784.911 1777.47 777.68C1869.44 672.639 1849.01 647.303 1872.25 626.88C1954.4 556.171 2021.58 532.105 2056.3 503.898C2071.27 491.424 2081.26 473.484 2096.6 461.01C2117.47 444.119 2238.09 391.515 2284.74 353.76C2288.36 350.85 2291.79 347.716 2295.01 344.376C2303.79 335.048 2314.61 318.268 2325.04 297.513C2345.91 256.336 2369.98 200.089 2399.9 159.574V110.392C2383.11 128.442 2370.14 144.173 2363.96 152.729C2346.24 177.402 2312.95 240.494 2262.88 297.624ZM1850.61 761.342C1852.21 752.786 1867.06 736.613 1874.57 722.648C1893.62 690.192 1916.25 654.423 1951.14 637.091C1969.41 627.984 1987.91 624.451 2011.98 612.362C2053.77 591.498 2085.84 560.366 2117.03 525.978C2124.92 518.084 2132.05 509.197 2139.28 500.642C2163.13 476.796 2200.11 466.419 2229.54 451.129C2249.52 437.219 2275.91 418.286 2278.28 430.044C2278.28 432.804 2275.52 436.115 2270.99 439.979C2259.24 449.694 2235.83 462.555 2217.94 476.962C2208.67 484.469 2202.82 493.19 2196.25 503.07C2173.23 536.741 2122.11 539.777 2047.69 631.295C2027.82 655.527 2002.54 673.963 1976.15 690.412C1944.68 709.897 1919.01 720.275 1893.18 741.747C1886.11 747.653 1870.71 763.771 1870.1 764.543C1864.64 770.008 1848.85 773.651 1850.61 761.342ZM1627.15 920.146C1615.39 929.861 1591.98 942.722 1574.09 957.129C1564.82 964.636 1558.97 973.357 1552.4 983.238C1529.38 1016.91 1478.26 1019.94 1403.84 1111.46C1383.97 1135.69 1358.69 1154.13 1332.3 1170.58C1300.83 1190.06 1275.16 1200.44 1249.33 1221.91C1242.26 1227.82 1226.86 1243.94 1226.25 1244.71C1220.79 1250.18 1205.05 1253.82 1206.77 1241.51C1208.37 1232.95 1223.22 1216.78 1230.72 1202.82C1249.77 1170.36 1272.4 1134.59 1307.29 1117.26C1325.56 1108.15 1344.06 1104.62 1368.13 1092.53C1409.92 1071.66 1441.99 1040.53 1473.18 1006.14C1481.08 998.252 1488.2 989.365 1495.43 980.809C1519.28 956.963 1556.26 946.586 1585.69 931.296C1605.67 917.387 1632.06 898.454 1634.43 910.211C1634.43 912.971 1631.67 916.283 1627.15 920.146Z" fill="#222374"/>
<path d="M2257.47 150.687C2246.65 164.474 2233.68 176.422 2219.05 186.069C2174.55 215.489 2158.21 209.804 2074.25 289.178C2071.27 291.938 2068.17 294.974 2065.03 297.624C2062.65 299.666 2060.33 301.819 2057.85 303.695C2015.84 336.317 1916.36 405.48 1900.41 400.568C1900.19 400.5 1900 400.389 1899.83 400.243C1899.66 400.096 1899.52 399.917 1899.42 399.716C1899.32 399.515 1899.27 399.296 1899.26 399.072C1899.25 398.848 1899.28 398.625 1899.36 398.415C1910.57 358.397 2002.37 323.236 2012.64 308.277C2013.41 307.228 2013.69 304.027 2009.44 304.027C1910.95 302.095 1902.51 380.255 1873.8 406.585C1873.14 407.026 1780.12 463.88 1755.94 491.203C1753.56 493.797 1751.96 496.557 1749.53 500.421C1723.09 541.82 1685.88 538.894 1613.57 630.909C1602.75 644.696 1589.77 656.644 1575.14 666.291C1530.65 695.712 1514.31 690.026 1430.34 769.401C1427.36 772.161 1424.27 775.197 1421.12 777.846C1418.75 779.888 1416.43 782.041 1413.95 783.918C1371.94 816.54 1272.46 885.703 1256.5 880.79C1256.29 880.722 1256.09 880.612 1255.92 880.465C1255.76 880.319 1255.62 880.139 1255.52 879.938C1255.42 879.737 1255.37 879.518 1255.35 879.294C1255.34 879.071 1255.38 878.847 1255.46 878.638C1266.66 838.619 1358.47 803.458 1368.73 788.499C1369.51 787.451 1369.78 784.249 1365.53 784.249C1267.05 782.317 1258.6 860.478 1229.9 886.807C1229.23 887.249 1136.21 944.102 1112.03 971.425C1109.66 974.02 1108.06 976.78 1105.63 980.644C1079.19 1022.04 1041.98 1019.12 969.663 1111.13C958.846 1124.92 945.871 1136.87 931.24 1146.51C886.746 1175.93 870.405 1170.25 786.439 1249.62C783.458 1252.38 780.367 1255.42 777.22 1258.07H831.762C902.148 1201.16 923.843 1196.14 977.005 1160.64C992.838 1149.96 1007.09 1137.1 1019.35 1122.45C1049.27 1086.57 1079.3 1058.64 1111.98 1025.96C1144.66 993.284 1191.97 959.503 1231 925.114C1262.74 899.999 1307.57 896.356 1384.14 849.824C1399.19 840.691 1413.43 830.275 1426.7 818.693C1445.08 802.63 1461.7 789.051 1475.56 777.846C1545.94 720.937 1567.64 715.914 1620.8 680.422C1636.63 669.735 1650.88 656.877 1663.14 642.225C1693.06 606.346 1723.09 578.416 1755.77 545.739C1792.48 509.032 1835.76 479.28 1874.79 444.892C1906.54 419.777 1951.36 416.134 2027.93 369.602C2042.99 360.469 2057.23 350.053 2070.49 338.47C2088.88 322.408 2105.49 308.829 2119.35 297.624C2189.73 240.715 2211.43 235.692 2264.59 200.199C2280.42 189.513 2294.68 176.655 2306.93 162.002C2336.85 126.124 2366.88 98.1933 2399.57 65.5161V11.0358C2397.19 13.6301 2395.59 16.3899 2393.16 20.2538C2366.99 61.5971 2329.73 58.7268 2257.47 150.687Z" fill="#222374"/>
<path d="M1228.24 1107.21C1310.38 1036.5 1377.57 1012.44 1412.29 984.231C1427.25 971.757 1437.24 953.817 1452.59 941.342C1473.46 924.452 1594.08 871.848 1640.73 834.093C1644.34 831.183 1647.77 828.049 1650.99 824.709C1659.77 815.381 1670.59 798.6 1681.03 777.846C1701.89 736.668 1725.96 680.422 1755.88 639.906C1770.73 619.704 1787.02 603.421 1804.85 595.086C1805.33 594.944 1805.83 594.916 1806.32 595.005C1806.81 595.094 1807.28 595.297 1807.67 595.598C1808.07 595.899 1808.39 596.289 1808.61 596.737C1808.83 597.185 1808.94 597.678 1808.93 598.177C1802.09 628.536 1775.37 653.485 1755.88 674.129C1741.36 689.529 1730.21 702.998 1735.02 710.505C1739.87 717.791 1751.69 706.089 1755.88 701.949C1784.53 677.22 1832.23 610.707 1865.52 582.059C1870.6 577.698 1877.94 569.75 1882.63 565.058C1902.4 542.371 1915.26 522.831 1940.6 500.255C2013.52 435.232 2053.54 435.895 2133.2 373.41C2163.37 349.788 2192.19 324.505 2219.54 297.679C2253.55 264.008 2274.09 237.237 2273.87 226.86C2273.87 224.376 2272.71 222.886 2270.22 222.389C2269.56 222.278 2266.47 223.051 2264.43 224.431C2246.15 236.74 2221.86 265.057 2189.02 297.679C2170.19 316.391 2148.61 336.593 2123.99 355.968C2109.71 367.179 2094.34 376.925 2078.11 385.057C1971.18 438.875 1920.23 459.299 1874.68 496.281C1871.98 498.489 1868.89 500.09 1865.79 501.746C1828.15 519.188 1785.91 558.544 1755.83 590.725C1739.05 608.775 1726.07 624.506 1719.89 633.062C1702.22 657.68 1668.99 720.771 1618.92 777.846C1573.1 830.229 1523.8 864.949 1461.7 896.025C1414 916.779 1395.07 939.576 1345 980.312C1337.05 986.715 1330.15 992.842 1321.37 1000.51C1321.34 1000.51 1321.31 1000.53 1321.29 1000.55C1321.27 1000.57 1321.26 1000.6 1321.26 1000.63C1289.3 1028.78 1259.6 1059.36 1227.58 1087.45C1218.19 1095.46 1199.04 1116.1 1183.63 1157.5C1169.5 1185.21 1145.87 1201.21 1111.98 1232.35C1108.89 1235.11 1105.8 1238.64 1102.48 1241.73C1096.91 1246.97 1091.17 1252.44 1086.31 1257.96H1133.37C1225.45 1152.97 1205.03 1127.64 1228.27 1107.21H1228.24Z" fill="#222374"/>
<path d="M584.336 1107.21C666.48 1036.5 733.664 1012.44 768.388 984.231C783.348 971.757 793.34 953.817 808.687 941.342C829.554 924.452 950.175 871.848 996.823 834.093C1000.44 831.183 1003.87 828.049 1007.09 824.709C1015.87 815.381 1026.69 798.6 1037.12 777.846C1057.99 736.668 1082.06 680.422 1111.98 639.906C1126.83 619.704 1143.11 603.421 1160.95 595.086C1161.42 594.944 1161.93 594.916 1162.42 595.005C1162.91 595.094 1163.37 595.297 1163.77 595.598C1164.17 595.899 1164.49 596.289 1164.71 596.737C1164.93 597.185 1165.04 597.678 1165.03 598.177C1158.19 628.536 1131.47 653.485 1111.98 674.129C1097.46 689.529 1086.31 702.998 1091.11 710.505C1095.97 717.791 1107.78 706.089 1111.98 701.949C1140.63 677.22 1188.33 610.707 1221.62 582.059C1226.69 577.698 1234.04 569.75 1238.73 565.058C1258.49 542.371 1271.35 522.831 1296.69 500.255C1369.62 435.232 1409.64 435.895 1489.3 373.41C1519.46 349.788 1548.29 324.505 1575.64 297.679C1609.65 264.008 1630.18 237.237 1629.96 226.86C1629.96 224.376 1628.8 222.886 1626.32 222.389C1625.66 222.278 1622.56 223.051 1620.52 224.431C1602.25 236.74 1577.96 265.057 1545.11 297.679C1526.29 316.391 1504.7 336.593 1480.08 355.968C1465.81 367.179 1450.44 376.925 1434.21 385.057C1327.28 438.875 1276.32 459.299 1230.78 496.281C1228.07 498.489 1224.98 500.09 1221.89 501.746C1184.24 519.188 1142.01 558.544 1111.92 590.725C1095.14 608.775 1082.17 624.506 1075.99 633.062C1058.32 657.68 1025.09 720.771 975.017 777.846C929.198 830.229 879.9 864.949 817.796 896.025C770.099 916.779 751.164 939.576 701.093 980.312C693.144 986.715 686.243 992.842 677.466 1000.51C677.437 1000.51 677.409 1000.53 677.388 1000.55C677.367 1000.57 677.356 1000.6 677.356 1000.63C645.392 1028.78 615.692 1059.36 583.674 1087.45C574.289 1095.46 555.133 1116.1 539.731 1157.5C525.599 1185.21 501.971 1201.21 468.076 1232.35C464.985 1235.11 461.893 1238.64 458.581 1241.73C453.005 1246.97 447.264 1252.44 442.406 1257.96H489.44C581.576 1152.97 561.15 1127.64 584.336 1107.21Z" fill="#222374"/>
<path d="M-66.0812 101.831C-61.0024 97.4702 -53.6602 89.5217 -48.9678 84.8299C-29.2047 62.1435 -16.3421 42.6035 8.99673 20.0275C81.9217 -44.9957 121.945 -44.3334 201.605 -106.817C231.768 -130.44 260.592 -155.723 287.944 -182.549C321.95 -216.22 342.486 -242.991 342.265 -253.368C342.265 -255.852 341.106 -257.342 338.622 -257.839C337.959 -257.95 334.868 -257.177 332.825 -255.797C314.553 -243.488 290.263 -215.171 257.416 -182.549C238.592 -163.837 217.007 -143.635 192.386 -124.26C178.109 -113.049 162.74 -103.303 146.511 -95.1707C39.58 -41.3527 -11.3737 -20.9294 -56.9173 16.0532C-59.6223 18.2611 -62.7137 19.8619 -65.8052 21.5178C-103.455 38.9604 -145.686 78.3165 -175.772 110.497V159.678C-160.922 139.476 -144.637 123.193 -126.806 114.858C-126.328 114.716 -125.823 114.688 -125.333 114.777C-124.842 114.866 -124.379 115.069 -123.982 115.37C-123.584 115.671 -123.263 116.061 -123.044 116.509C-122.825 116.957 -122.714 117.45 -122.721 117.949C-129.566 148.308 -156.285 173.257 -175.772 193.901V221.721C-147.011 196.992 -99.3142 130.479 -66.0812 101.831Z" fill="#222374"/>
<path d="M96.4956 -110.565C111.553 -119.698 125.793 -130.114 139.058 -141.697C157.441 -157.76 174.058 -171.338 187.914 -182.544C258.3 -239.453 279.995 -244.476 333.157 -279.968C348.99 -290.655 363.243 -303.513 375.498 -318.165C405.419 -354.044 435.45 -381.974 468.131 -414.651C504.842 -451.358 548.122 -481.109 587.152 -515.498C618.894 -540.613 663.72 -544.256 740.289 -590.788C755.346 -599.921 769.586 -610.337 782.851 -621.919C801.234 -637.982 817.851 -651.561 831.707 -662.766H777.165C774.791 -660.724 772.473 -658.571 769.989 -656.694C727.978 -624.072 628.5 -554.909 612.546 -559.822C612.335 -559.893 612.14 -560.006 611.973 -560.153C611.806 -560.3 611.669 -560.479 611.572 -560.679C611.474 -560.879 611.417 -561.097 611.405 -561.319C611.392 -561.542 611.423 -561.764 611.497 -561.974C622.703 -601.993 714.508 -637.154 724.776 -652.113C725.549 -653.162 725.825 -656.363 721.574 -656.363C623.09 -658.295 614.644 -580.135 585.937 -553.805C585.275 -553.364 492.256 -496.51 468.076 -469.187C465.702 -466.592 464.101 -463.832 461.672 -459.969C435.229 -418.57 398.022 -421.496 325.704 -329.481C314.887 -315.694 301.912 -303.746 287.282 -294.099C242.787 -264.678 226.447 -270.364 142.481 -190.989C139.5 -188.229 136.408 -185.193 133.262 -182.544C130.888 -180.501 128.569 -178.349 126.085 -176.472C84.0747 -143.85 -15.4037 -74.6867 -31.3577 -79.5994C-31.5687 -79.6707 -31.7633 -79.7833 -31.9305 -79.9305C-32.0977 -80.0776 -32.234 -80.2565 -32.3316 -80.4567C-32.4292 -80.6569 -32.486 -80.8746 -32.4989 -81.0969C-32.5117 -81.3193 -32.4804 -81.5419 -32.4065 -81.752C-21.2001 -121.771 70.6047 -156.932 80.8727 -171.89C81.6456 -172.939 81.9216 -176.141 77.6709 -176.141C-20.8137 -178.073 -29.2599 -99.9123 -57.9662 -73.5828C-58.6286 -73.1412 -151.648 -16.2873 -175.827 11.0357V65.5713C-139.117 28.8647 -95.8363 -0.88701 -56.8068 -35.2754C-24.8987 -60.4456 19.9272 -64.0335 96.4956 -110.565Z" fill="#222374"/>
<path d="M-154.298 297.624C-62.3273 192.582 -82.7529 167.246 -59.5119 146.823C22.6322 76.1142 89.8159 52.0478 124.539 23.8417C139.5 11.3669 149.492 -6.5724 164.839 -19.0471C185.706 -35.9377 306.327 -88.5415 352.975 -126.297C356.591 -129.206 360.02 -132.34 363.243 -135.681C372.02 -145.009 382.841 -161.789 393.274 -182.544C414.141 -223.721 438.21 -279.968 468.131 -320.483C482.981 -340.686 499.266 -356.969 517.097 -365.304C517.575 -365.446 518.08 -365.474 518.571 -365.385C519.061 -365.296 519.524 -365.092 519.922 -364.792C520.32 -364.491 520.641 -364.101 520.86 -363.653C521.079 -363.205 521.189 -362.712 521.183 -362.213C514.337 -331.854 487.618 -306.905 468.131 -286.261C453.612 -270.86 442.461 -257.392 447.264 -249.885C452.122 -242.599 463.936 -254.301 468.131 -258.441C496.782 -283.169 544.479 -349.683 577.767 -378.331C582.846 -382.691 590.188 -390.64 594.88 -395.332C614.644 -418.018 627.506 -437.558 652.845 -460.134C725.77 -525.157 765.793 -524.495 845.453 -586.979C875.616 -610.601 904.44 -635.884 931.792 -662.711H901.32C882.495 -643.999 860.91 -623.796 836.289 -604.422C822.012 -593.211 806.643 -583.465 790.414 -575.332C683.483 -521.514 632.53 -501.091 586.986 -464.108C584.281 -461.901 581.19 -460.3 578.098 -458.644C540.449 -441.201 498.218 -401.845 468.131 -369.665C451.349 -351.615 438.376 -335.884 432.193 -327.328C414.528 -302.71 381.295 -239.618 331.224 -182.544C285.405 -130.161 236.107 -95.4412 174.002 -64.3647C126.306 -43.6103 107.371 -20.8136 57.3005 19.9226C49.3511 26.3255 42.4505 32.4525 33.673 40.1251C33.6437 40.1251 33.6157 40.1367 33.595 40.1574C33.5743 40.1781 33.5626 40.2062 33.5626 40.2354C1.59932 68.3864 -28.1006 98.9661 -60.1191 127.062C-69.5038 135.066 -88.6598 155.71 -104.062 197.108C-118.194 224.818 -141.822 240.825 -175.717 271.957V318.985C-168.099 310.871 -160.701 304.91 -154.298 297.624Z" fill="#222374"/>
<path d="M-61.444 335.048C-50.5136 323.843 -42.509 315.784 -31.9098 308.001C-26.5549 304.358 -20.8688 300.494 -15.2379 297.624C32.4586 272.785 88.4909 267.982 137.844 246.842C170.469 231.828 195.035 204.173 220.54 179.776C245.437 155.986 275.578 138.543 304.064 119.555C339.395 91.3489 373.069 58.9476 398.408 21.2474C406.965 9.26944 418.061 -0.721448 429.433 -9.99471C442.296 -20.5375 455.71 -30.5284 468.242 -41.4576C483.864 -54.7051 489.109 -49.1301 582.459 -145.175C593.39 -156.38 601.394 -164.439 611.994 -172.222C617.349 -175.865 623.035 -179.728 628.665 -182.599C676.362 -207.438 732.394 -212.24 781.747 -233.381C814.373 -248.395 838.939 -276.049 864.443 -300.446C889.34 -324.237 919.482 -341.679 947.967 -360.667C983.298 -388.874 1016.97 -421.275 1042.31 -458.975C1050.87 -470.953 1061.96 -480.944 1073.34 -490.217C1086.2 -500.76 1099.61 -510.751 1112.14 -521.68C1127.77 -534.927 1133.01 -529.352 1226.36 -625.397C1237.29 -636.602 1245.3 -644.661 1255.9 -652.444C1261.25 -656.087 1266.94 -659.951 1272.57 -662.821H1164.48C1148.64 -633.787 1132.46 -607.623 1112.09 -581.57C1082.45 -544.146 1046.84 -519.03 1008.25 -468.524C976.674 -429.444 938.251 -391.247 897.345 -361.992C824.199 -310.989 762.922 -261.918 746.306 -261.256C744.153 -261.256 742.607 -262.967 742 -265.009C739.24 -275.055 752.93 -287.917 761.984 -296.969C800.682 -334.945 917.715 -392.682 959.119 -450.971C974.741 -473.327 993.676 -496.62 1007.37 -520.355C1034.64 -566.997 1050.59 -586.979 1081.51 -612.205C1092.28 -621.269 1102.5 -630.984 1112.09 -641.294C1119.71 -649.408 1127.05 -655.425 1133.45 -662.656H1086.36C1057.27 -629.702 1038.78 -593.658 1011.62 -569.426C1005.1 -562.692 996.547 -558.828 988.818 -554.909C953.101 -537.467 897.345 -525.82 838.332 -491.266C836.951 -490.438 816.967 -477.466 809.57 -471.671C794.996 -460.41 783.9 -445.507 770.43 -433.087C732.67 -395.332 667.419 -379.269 628.61 -341.348C579.975 -292.719 552.594 -243.261 520.575 -182.544C504.732 -153.509 488.557 -127.346 468.186 -101.292C438.542 -63.8679 402.935 -38.7528 364.347 11.7534C332.77 50.8335 294.348 89.0305 253.442 118.285C180.296 169.288 119.019 218.359 102.402 219.022C100.249 219.022 98.7038 217.311 98.1517 215.268C95.3915 205.222 109.082 192.361 118.136 183.309C156.834 145.222 273.867 87.4849 315.27 29.1959C330.893 6.84068 349.828 -16.4528 363.519 -40.188C390.79 -86.8303 406.744 -106.812 437.658 -132.037C448.436 -141.102 458.649 -150.817 468.242 -161.127C475.86 -169.241 483.202 -175.257 489.606 -182.488C581.576 -287.53 561.151 -312.866 584.392 -333.289C666.536 -403.998 733.719 -428.064 768.443 -456.27C783.403 -468.745 793.395 -486.684 808.742 -499.159C829.609 -516.05 950.231 -568.653 996.878 -606.409C1000.49 -609.318 1003.92 -612.452 1007.15 -615.793C1015.92 -625.121 1026.74 -641.901 1037.18 -662.656H975.128C929.308 -610.273 880.011 -575.553 817.906 -544.477C770.209 -523.722 751.274 -500.926 701.204 -460.189C693.254 -453.786 686.354 -447.659 677.576 -439.987C677.547 -439.987 677.519 -439.975 677.498 -439.955C677.478 -439.934 677.466 -439.906 677.466 -439.877C645.503 -411.726 615.803 -381.146 583.784 -353.05C574.4 -345.046 555.244 -324.402 539.842 -283.004C525.709 -255.294 502.082 -239.287 468.186 -208.155C465.095 -205.396 462.004 -201.863 458.691 -198.772C453.116 -193.528 447.374 -188.063 442.516 -182.544C413.424 -149.59 394.93 -113.546 367.77 -89.3142C361.256 -82.58 352.699 -78.7161 344.97 -74.7971C309.253 -57.3545 253.497 -45.7077 194.483 -11.1538C193.103 -10.3258 173.119 2.64571 165.722 8.4415C151.148 19.7019 140.052 34.6053 126.582 47.0248C88.8222 84.7802 23.5707 100.843 -15.2379 138.764C-63.873 187.393 -91.2544 236.851 -123.273 297.569C-139.117 326.603 -155.291 352.766 -175.662 378.82V438.82C-160.094 425.517 -154.795 431.148 -61.444 335.048ZM562.862 -198.998C564.463 -207.554 579.313 -223.727 586.82 -237.692C605.866 -270.148 628.5 -305.917 663.389 -323.249C681.662 -332.356 700.155 -335.889 724.224 -347.977C766.014 -368.842 798.087 -399.974 829.278 -434.362C837.172 -442.256 844.294 -451.142 851.525 -459.698C875.374 -483.544 912.36 -493.921 941.784 -509.211C961.768 -523.121 988.156 -542.054 990.53 -530.296C990.53 -527.536 987.77 -524.225 983.243 -520.361C971.484 -510.646 948.078 -497.785 930.191 -483.378C920.917 -475.871 915.065 -467.15 908.496 -457.269C885.476 -423.599 834.357 -420.563 759.941 -329.045C740.068 -304.813 714.784 -286.376 688.396 -269.927C656.93 -250.443 631.26 -240.065 605.424 -218.593C598.358 -212.687 582.956 -196.569 582.349 -195.797C576.884 -190.387 561.095 -186.689 562.862 -198.998ZM-81.0416 281.169C-79.4406 272.613 -64.5906 256.44 -57.0829 242.475C-38.0374 210.019 -15.4036 174.251 19.4855 156.919C37.7582 147.811 56.2516 144.278 80.3207 132.19C122.11 111.325 154.184 80.1933 185.375 45.805C193.269 37.9117 200.39 29.0247 207.622 20.469C231.47 -3.3765 268.457 -13.7537 297.881 -29.0435C317.865 -42.9534 344.253 -61.8863 346.626 -50.1291C346.626 -47.3692 343.866 -44.0574 339.339 -40.1935C327.581 -30.4787 304.174 -17.6175 286.288 -3.21085C277.014 4.29607 271.162 13.0174 264.593 22.8978C241.573 56.5686 190.453 59.6045 116.038 151.123C96.1643 175.355 70.8808 193.791 44.4931 210.24C13.0266 229.725 -12.6434 240.102 -38.479 261.574C-45.5452 267.48 -60.9472 283.598 -61.5545 284.371C-67.0197 289.78 -82.8081 293.478 -81.0416 281.169Z" fill="#222374"/>
<path d="M-66.0812 582.004C-61.0024 577.643 -53.6602 569.695 -48.9678 565.003C-29.2047 542.316 -16.3421 522.776 8.99673 500.2C81.9217 435.177 121.945 435.839 201.605 373.355C231.768 349.733 260.592 324.45 287.944 297.624C321.95 263.953 342.486 237.182 342.265 226.805C342.265 224.321 341.106 222.83 338.622 222.334C337.959 222.223 334.868 222.996 332.825 224.376C314.553 236.685 290.263 265.002 257.416 297.624C238.592 316.336 217.007 336.538 192.386 355.913C178.109 367.124 162.74 376.869 146.511 385.002C39.58 438.82 -11.3737 459.243 -56.9173 496.226C-59.6223 498.434 -62.7137 500.035 -65.8052 501.691C-103.455 519.133 -145.686 558.489 -175.772 590.67V639.851C-160.922 619.649 -144.637 603.365 -126.806 595.03C-126.328 594.888 -125.823 594.861 -125.333 594.95C-124.842 595.039 -124.379 595.242 -123.982 595.543C-123.584 595.844 -123.263 596.234 -123.044 596.682C-122.825 597.13 -122.714 597.623 -122.721 598.122C-129.566 628.48 -156.285 653.43 -175.772 674.074V701.894C-147.011 677.165 -99.3142 610.651 -66.0812 582.004Z" fill="#222374"/>
<path d="M96.4956 369.602C111.553 360.469 125.793 350.053 139.058 338.47C157.441 322.408 174.058 308.829 187.914 297.624C258.3 240.715 279.995 235.692 333.157 200.199C348.99 189.513 363.243 176.655 375.498 162.002C405.419 126.124 435.45 98.1934 468.131 65.5162C504.842 28.8095 548.122 -0.942186 587.152 -35.3305C618.894 -60.4456 663.72 -64.0887 740.289 -110.621C755.346 -119.753 769.586 -130.169 782.851 -141.752C801.234 -157.815 817.851 -171.394 831.707 -182.599C902.093 -239.508 923.788 -244.531 976.95 -280.023C992.783 -290.71 1007.04 -303.568 1019.29 -318.22C1049.21 -354.099 1079.24 -382.029 1111.92 -414.706C1148.64 -451.413 1191.92 -481.165 1230.94 -515.553C1262.69 -540.668 1307.51 -544.311 1384.08 -590.843C1399.14 -599.976 1413.38 -610.392 1426.64 -621.975C1445.03 -638.037 1461.64 -651.616 1475.5 -662.821H1421.18C1418.81 -660.779 1416.49 -658.626 1414 -656.749C1371.99 -624.127 1272.51 -554.964 1256.56 -559.877C1256.35 -559.945 1256.15 -560.056 1255.98 -560.202C1255.81 -560.349 1255.67 -560.528 1255.57 -560.729C1255.48 -560.93 1255.42 -561.149 1255.41 -561.373C1255.4 -561.596 1255.43 -561.82 1255.51 -562.03C1266.72 -602.048 1358.52 -637.209 1368.79 -652.168C1369.56 -653.217 1369.84 -656.418 1365.59 -656.418C1267.1 -658.35 1258.66 -580.19 1229.95 -553.86C1229.29 -553.419 1136.27 -496.565 1112.09 -469.242C1109.72 -466.648 1108.12 -463.888 1105.69 -460.024C1079.24 -418.625 1042.04 -421.551 969.718 -329.536C958.901 -315.749 945.926 -303.801 931.296 -294.154C886.801 -264.733 870.46 -270.419 786.495 -191.044C783.514 -188.284 780.422 -185.248 777.275 -182.599C774.902 -180.556 772.583 -178.404 770.099 -176.527C728.088 -143.905 628.61 -74.7419 612.656 -79.6545C612.445 -79.7259 612.25 -79.8385 612.083 -79.9856C611.916 -80.1328 611.78 -80.3117 611.682 -80.5119C611.585 -80.7121 611.528 -80.9298 611.515 -81.1521C611.502 -81.3745 611.533 -81.5971 611.607 -81.8072C622.814 -121.826 714.619 -156.987 724.887 -171.946C725.659 -172.994 725.935 -176.196 721.685 -176.196C623.2 -178.128 614.754 -99.9674 586.048 -73.638C585.385 -73.1964 492.366 -16.3425 468.186 10.9805C465.813 13.5748 464.212 16.3347 461.783 20.1986C435.34 61.597 398.132 58.6716 325.814 150.687C314.997 164.474 302.023 176.422 287.392 186.069C242.898 215.489 226.557 209.804 142.591 289.178C139.61 291.938 136.519 294.974 133.372 297.624C130.998 299.666 128.68 301.819 126.196 303.695C84.185 336.317 -15.2931 405.48 -31.2472 400.568C-31.4582 400.496 -31.6529 400.384 -31.8201 400.237C-31.9873 400.09 -32.1237 399.911 -32.2212 399.711C-32.3188 399.51 -32.3756 399.293 -32.3885 399.07C-32.4013 398.848 -32.37 398.625 -32.2962 398.415C-21.0897 358.397 70.7151 323.236 80.9831 308.277C81.756 307.228 82.0321 304.027 77.7814 304.027C-20.7032 302.095 -29.1495 380.255 -57.8557 406.585C-58.5182 407.026 -151.537 463.88 -175.717 491.203V545.739C-139.006 509.032 -95.7259 479.28 -56.6965 444.892C-24.8988 419.777 19.9272 416.134 96.4956 369.602Z" fill="#222374"/>
<path d="M-154.298 777.791C-62.3273 672.749 -82.7529 647.413 -59.5119 626.99C22.6322 556.281 89.8159 532.215 124.539 504.009C139.5 491.534 149.492 473.595 164.839 461.12C185.706 444.229 306.327 391.626 352.975 353.87C356.591 350.961 360.02 347.827 363.243 344.487C372.02 335.158 382.841 318.378 393.274 297.624C414.141 256.446 438.21 200.199 468.131 159.684C482.981 139.481 499.266 123.198 517.097 114.863C517.575 114.721 518.08 114.693 518.571 114.782C519.061 114.871 519.524 115.075 519.922 115.376C520.32 115.676 520.641 116.067 520.86 116.515C521.079 116.962 521.189 117.456 521.183 117.954C514.337 148.313 487.618 173.263 468.131 193.907C453.612 209.307 442.461 222.775 447.264 230.282C452.122 237.568 463.936 225.866 468.131 221.726C496.782 196.998 544.479 130.484 577.767 101.836C582.846 97.4758 590.188 89.5272 594.88 84.8354C614.644 62.149 627.506 42.609 652.845 20.033C725.77 -44.9902 765.793 -44.3279 845.453 -106.812C875.616 -130.434 904.44 -155.717 931.792 -182.544C965.798 -216.214 986.334 -242.985 986.113 -253.363C986.113 -255.846 984.954 -257.337 982.47 -257.834C981.807 -257.944 978.716 -257.171 976.673 -255.791C958.401 -243.482 934.111 -215.166 901.264 -182.544C882.44 -163.831 860.855 -143.629 836.234 -124.254C821.957 -113.043 806.588 -103.298 790.359 -95.1652C683.428 -41.3472 632.474 -20.9239 586.931 16.0587C584.226 18.2666 581.134 19.8674 578.043 21.5233C540.394 38.9659 498.162 78.322 468.076 110.502C451.294 128.552 438.321 144.284 432.138 152.839C414.473 177.458 381.24 240.549 331.169 297.624C285.35 350.006 236.052 384.726 173.947 415.803C126.251 436.557 107.316 459.354 57.2452 500.09C49.2958 506.493 42.3954 512.62 33.6179 520.292C33.5886 520.292 33.5604 520.304 33.5397 520.325C33.519 520.345 33.5074 520.373 33.5074 520.403C1.54407 548.554 -28.1558 579.133 -60.1744 607.229C-69.5591 615.233 -88.715 635.877 -104.117 677.275C-118.249 704.985 -141.877 720.992 -175.772 752.124V799.153C-168.099 791.094 -160.701 785.077 -154.298 777.791Z" fill="#222374"/>
<path d="M-61.444 815.215C-50.5135 804.01 -42.509 795.951 -31.9097 788.168C-26.5549 784.525 -20.8688 780.661 -15.2379 777.791C32.4586 752.952 88.4909 748.15 137.844 727.009C170.469 711.995 195.035 684.341 220.54 659.943C245.437 636.153 275.579 618.71 304.064 599.722C339.395 571.516 373.069 539.115 398.408 501.414C406.965 489.437 418.061 479.446 429.433 470.173C442.296 459.63 455.71 449.639 468.242 438.71C483.864 425.462 489.109 431.037 582.459 334.993C593.39 323.787 601.395 315.729 611.994 307.946C617.349 304.303 623.035 300.439 628.665 297.569C676.362 272.729 732.394 267.927 781.747 246.786C814.373 231.773 838.939 204.118 864.443 179.721C889.34 155.931 919.482 138.488 947.967 119.5C983.298 91.2936 1016.97 58.8924 1042.31 21.1922C1050.87 9.21426 1061.96 -0.776556 1073.34 -10.0498C1086.2 -20.5926 1099.61 -30.5835 1112.15 -41.5127C1127.77 -54.7602 1133.01 -49.1852 1226.36 -145.23C1237.29 -156.435 1245.3 -164.494 1255.9 -172.277C1261.25 -175.92 1266.94 -179.784 1272.57 -182.654C1320.27 -207.493 1376.3 -212.295 1425.65 -233.436C1458.28 -248.45 1482.84 -276.104 1508.35 -300.502C1533.24 -324.292 1563.39 -341.734 1591.87 -360.723C1627.2 -388.929 1660.88 -421.33 1686.22 -459.03C1694.77 -471.008 1705.87 -480.999 1717.24 -490.272C1730.1 -500.815 1743.52 -510.806 1756.05 -521.735C1771.67 -534.983 1776.92 -529.408 1870.27 -625.452C1881.2 -636.657 1889.2 -644.716 1899.8 -652.499C1905.16 -656.142 1910.84 -660.006 1916.47 -662.876H1808.44C1792.59 -633.842 1776.42 -607.678 1756.05 -581.625C1726.4 -544.201 1690.8 -519.086 1652.21 -468.579C1620.63 -429.499 1582.21 -391.302 1541.3 -362.047C1468.16 -311.044 1406.88 -261.973 1390.26 -261.311C1388.11 -261.311 1386.57 -263.022 1385.96 -265.064C1383.2 -275.111 1396.89 -287.972 1405.94 -297.024C1444.64 -335.111 1561.67 -392.848 1603.08 -451.137C1618.7 -473.492 1637.64 -496.786 1651.33 -520.521C1678.6 -567.163 1694.55 -587.145 1725.47 -612.37C1736.24 -621.435 1746.46 -631.149 1756.05 -641.46C1763.67 -649.574 1771.01 -655.59 1777.41 -662.821H1730.38C1701.29 -629.868 1682.79 -593.824 1655.63 -569.592C1649.12 -562.858 1640.56 -558.994 1632.83 -555.075C1597.12 -537.632 1541.36 -525.985 1482.35 -491.431C1480.97 -490.603 1460.98 -477.632 1453.58 -471.836C1439.01 -460.576 1427.91 -445.672 1414.44 -433.253C1376.68 -395.497 1311.43 -379.435 1272.62 -341.514C1223.99 -292.884 1196.61 -243.427 1164.59 -182.709C1148.75 -153.675 1132.57 -127.511 1112.2 -101.458C1082.56 -64.0335 1046.95 -38.9184 1008.36 11.5878C976.784 50.6679 938.362 88.8649 897.455 118.12C824.31 169.123 763.033 218.194 746.416 218.856C744.263 218.856 742.718 217.145 742.11 215.103C739.35 205.057 753.041 192.196 762.094 183.143C800.793 145.057 917.826 87.3194 959.229 29.0303C974.852 6.67513 993.787 -16.6184 1007.48 -40.3535C1034.75 -86.9958 1050.7 -106.977 1081.62 -132.203C1092.39 -141.268 1102.61 -150.982 1112.2 -161.292C1119.82 -169.406 1127.16 -175.423 1133.56 -182.654C1225.53 -287.696 1205.11 -313.032 1228.35 -333.455C1310.49 -404.163 1377.68 -428.23 1412.4 -456.436C1427.36 -468.911 1437.35 -486.85 1452.7 -499.325C1473.57 -516.215 1594.19 -568.819 1640.84 -606.574C1644.45 -609.484 1647.88 -612.618 1651.11 -615.958C1659.88 -625.287 1670.7 -642.067 1681.14 -662.821H1619.09C1573.27 -610.438 1523.97 -575.719 1461.86 -544.642C1414.17 -523.888 1395.23 -501.091 1345.16 -460.355C1337.21 -453.952 1330.31 -447.825 1321.54 -440.153C1321.52 -440.153 1321.51 -440.15 1321.49 -440.144C1321.48 -440.139 1321.47 -440.13 1321.46 -440.12C1321.45 -440.11 1321.44 -440.098 1321.43 -440.084C1321.43 -440.071 1321.42 -440.057 1321.42 -440.042C1289.46 -411.891 1259.76 -381.311 1227.74 -353.216C1218.36 -345.212 1199.2 -324.568 1183.8 -283.169C1169.67 -255.46 1146.04 -239.453 1112.15 -208.321C1109.05 -205.561 1105.96 -202.028 1102.65 -198.937C1097.07 -193.694 1091.33 -188.229 1086.48 -182.709C1057.38 -149.756 1038.89 -113.712 1011.73 -89.4797C1005.21 -82.7456 996.658 -78.8817 988.929 -74.9627C953.212 -57.5201 897.455 -45.8733 838.442 -11.3194C837.062 -10.4914 817.078 2.4801 809.68 8.27589C795.107 19.5363 784.011 34.4397 770.541 46.8593C732.781 84.6147 667.529 100.677 628.721 138.598C580.086 187.228 552.704 236.685 520.686 297.403C504.842 326.437 488.667 352.601 468.297 378.654C438.652 416.079 403.045 441.194 364.457 491.7C332.881 530.78 294.458 568.977 253.552 598.232C180.406 649.235 119.129 698.306 102.513 698.968C100.36 698.968 98.8142 697.257 98.2621 695.215C95.5019 685.169 109.193 672.308 118.246 663.255C156.944 625.168 273.978 567.431 315.381 509.142C331.004 486.787 349.939 463.494 363.629 439.758C390.9 393.116 406.854 373.135 437.769 347.909C448.546 338.844 458.76 329.13 468.352 318.82C475.97 310.706 483.312 304.689 489.716 297.458C581.687 192.416 561.261 167.08 584.502 146.657C666.646 75.9486 733.83 51.8823 768.553 23.6761C783.514 11.2014 793.506 -6.73799 808.852 -19.2127C829.72 -36.1033 950.341 -88.7069 996.989 -126.462C1000.6 -129.372 1004.03 -132.506 1007.26 -135.846C1016.03 -145.174 1026.85 -161.955 1037.29 -182.709C1058.16 -223.887 1082.22 -280.134 1112.15 -320.649C1126.99 -340.851 1143.28 -357.135 1161.11 -365.47C1161.59 -365.612 1162.09 -365.639 1162.58 -365.55C1163.08 -365.461 1163.54 -365.258 1163.94 -364.957C1164.33 -364.656 1164.65 -364.266 1164.87 -363.818C1165.09 -363.37 1165.2 -362.877 1165.2 -362.379C1158.35 -332.02 1131.63 -307.07 1112.15 -286.426C1097.63 -271.026 1086.48 -257.558 1091.28 -250.051C1096.14 -242.765 1107.95 -254.466 1112.15 -258.606C1140.8 -283.335 1188.49 -349.849 1221.78 -378.496C1226.86 -382.857 1234.2 -390.805 1238.89 -395.497C1258.66 -418.184 1271.52 -437.724 1296.86 -460.3C1369.78 -525.323 1409.81 -524.661 1489.47 -587.145C1519.63 -610.767 1548.45 -636.05 1575.81 -662.876H1545.33C1526.51 -644.164 1504.92 -623.962 1480.3 -604.587C1466.03 -593.376 1450.66 -583.631 1434.43 -575.498C1327.5 -521.68 1276.54 -501.257 1231 -464.274C1228.3 -462.066 1225.2 -460.465 1222.11 -458.809C1184.46 -441.367 1142.23 -402.011 1112.15 -369.83C1095.36 -351.781 1082.39 -336.049 1076.21 -327.493C1058.54 -302.875 1025.31 -239.784 975.238 -182.709C929.419 -130.326 880.121 -95.6067 818.016 -64.5303C770.32 -43.7758 751.385 -20.979 701.314 19.7571C693.365 26.1601 686.464 32.287 677.687 39.9595C677.658 39.9595 677.63 39.9712 677.609 39.9919C677.588 40.0126 677.577 40.0406 677.577 40.0699C645.613 68.2209 615.913 98.8005 583.895 126.896C574.51 134.9 555.354 155.544 539.952 196.943C525.82 224.652 502.192 240.659 468.297 271.791C465.205 274.551 462.114 278.084 458.802 281.175C453.226 286.418 447.485 291.883 442.627 297.403C413.534 330.356 395.041 366.4 367.88 390.632C361.366 397.366 352.809 401.23 345.081 405.149C309.364 422.592 253.607 434.239 194.594 468.793C193.214 469.676 173.23 482.592 165.832 488.388C151.258 499.648 140.162 514.552 126.692 526.971C88.9326 564.727 23.6811 580.789 -15.1275 618.71C-63.7626 667.34 -91.144 716.797 -123.162 777.515C-139.006 806.549 -155.181 832.713 -175.551 858.766V918.656C-160.094 905.685 -154.795 911.315 -61.444 815.215ZM1206.71 -198.998C1208.31 -207.554 1223.16 -223.727 1230.67 -237.692C1249.71 -270.148 1272.35 -305.917 1307.24 -323.249C1325.51 -332.356 1344 -335.889 1368.07 -347.977C1409.86 -368.842 1441.94 -399.974 1473.13 -434.362C1481.02 -442.256 1488.14 -451.142 1495.37 -459.698C1519.22 -483.544 1556.21 -493.921 1585.63 -509.211C1605.62 -523.121 1632 -542.053 1634.38 -530.296C1634.38 -527.536 1631.62 -524.225 1627.09 -520.361C1615.33 -510.646 1591.93 -497.785 1574.04 -483.378C1564.77 -475.871 1558.91 -467.15 1552.34 -457.269C1529.32 -423.599 1478.21 -420.563 1403.79 -329.044C1383.92 -304.813 1358.63 -286.376 1332.24 -269.927C1300.78 -250.443 1275.11 -240.065 1249.27 -218.593C1242.21 -212.687 1226.8 -196.569 1226.2 -195.797C1220.73 -190.387 1204.94 -186.689 1206.71 -198.998ZM562.862 281.169C564.463 272.613 579.313 256.44 586.821 242.475C605.866 210.019 628.5 174.251 663.389 156.919C681.662 147.811 700.155 144.278 724.224 132.19C766.014 111.325 798.088 80.1933 829.278 45.805C837.172 37.9117 844.294 29.0248 851.525 20.4691C875.374 -3.37643 912.361 -13.7536 941.784 -29.0435C961.768 -42.9534 988.156 -61.8863 990.53 -50.1291C990.53 -47.3692 987.77 -44.0573 983.243 -40.1935C971.484 -30.4786 948.078 -17.6175 930.192 -3.21085C920.917 4.29608 915.066 13.0174 908.496 22.8978C885.476 56.5686 834.357 59.6045 759.941 151.123C740.068 175.355 714.784 193.791 688.397 210.24C656.93 229.725 631.26 240.102 605.424 261.574C598.358 267.48 582.956 283.598 582.349 284.371C576.884 289.78 561.095 293.478 562.862 281.169ZM-81.0415 761.336C-79.4406 752.781 -64.5906 736.608 -57.0828 722.642C-38.0373 690.186 -15.4036 654.418 19.4856 637.086C37.7582 627.978 56.2516 624.445 80.3207 612.357C122.11 591.492 154.184 560.361 185.375 525.972C193.269 518.079 200.39 509.192 207.622 500.636C231.47 476.791 268.457 466.414 297.881 451.124C317.865 437.214 344.253 418.281 346.627 430.038C346.627 432.798 343.866 436.11 339.339 439.974C327.581 449.689 304.174 462.55 286.288 476.957C277.014 484.463 271.162 493.185 264.593 503.065C241.573 536.736 190.453 539.772 116.038 631.29C96.1643 655.522 70.8808 673.958 44.4931 690.407C13.0267 709.892 -12.6434 720.269 -38.479 741.741C-45.5452 747.647 -60.9472 763.765 -61.5545 764.538C-67.0197 770.003 -82.8081 773.645 -81.0415 761.336Z" fill="#222374"/>
<path d="M-59.5671 1107.21C22.577 1036.5 89.7606 1012.44 124.484 984.231C139.445 971.757 149.437 953.817 164.783 941.342C185.651 924.452 306.272 871.848 352.92 834.093C356.536 831.183 359.965 828.049 363.188 824.709C371.965 815.381 382.785 798.6 393.219 777.846C414.086 736.668 438.155 680.422 468.076 639.906C482.926 619.704 499.211 603.421 517.042 595.086C517.52 594.944 518.025 594.916 518.516 595.005C519.006 595.094 519.469 595.297 519.867 595.598C520.264 595.899 520.586 596.289 520.805 596.737C521.024 597.185 521.134 597.678 521.127 598.177C514.282 628.536 487.563 653.485 468.076 674.129C453.557 689.529 442.406 702.998 447.209 710.505C452.067 717.791 463.88 706.089 468.076 701.949C496.727 677.22 544.424 610.707 577.712 582.059C582.791 577.698 590.133 569.75 594.825 565.058C614.588 542.371 627.451 522.831 652.79 500.255C725.715 435.232 765.738 435.895 845.398 373.41C875.561 349.788 904.385 324.505 931.737 297.679C965.743 264.008 986.279 237.237 986.058 226.86C986.058 224.376 984.899 222.886 982.415 222.389C981.752 222.278 978.661 223.051 976.618 224.431C958.346 236.74 934.056 265.057 901.209 297.679C882.384 316.391 860.8 336.593 836.178 355.968C821.902 367.179 806.533 376.925 790.304 385.057C683.373 438.875 632.419 459.299 586.876 496.281C584.171 498.489 581.079 500.09 577.988 501.746C540.338 519.188 498.107 558.544 468.021 590.725C451.239 608.775 438.266 624.506 432.083 633.062C414.417 657.68 381.184 720.771 331.114 777.846C285.294 830.229 235.997 864.949 173.892 896.025C126.195 916.779 107.26 939.576 57.1901 980.312C49.2407 986.715 42.3401 992.842 33.5626 1000.51C33.5333 1000.51 33.5053 1000.53 33.4846 1000.55C33.4639 1000.57 33.4522 1000.6 33.4522 1000.63C1.48893 1028.78 -28.211 1059.36 -60.2296 1087.45C-69.6143 1095.46 -88.7702 1116.1 -104.172 1157.5C-118.305 1185.21 -141.932 1201.21 -175.827 1232.35V1258.01H-154.463C-62.3273 1152.97 -82.7529 1127.64 -59.5671 1107.21Z" fill="#222374"/>
<path d="M96.4956 849.763C111.553 840.631 125.793 830.215 139.058 818.632C157.441 802.569 174.058 788.991 187.914 777.785C258.3 720.876 279.995 715.853 333.157 680.361C348.99 669.674 363.243 656.816 375.498 642.164C405.419 606.285 435.45 578.355 468.131 545.678C500.812 513.001 548.122 479.219 587.152 444.831C618.894 419.716 663.72 416.073 740.289 369.541C755.346 360.408 769.586 349.992 782.851 338.409C801.234 322.347 817.851 308.768 831.707 297.563C902.093 240.654 923.788 235.631 976.95 200.139C992.783 189.452 1007.04 176.594 1019.29 161.941C1049.21 126.063 1079.24 98.1326 1111.92 65.4554C1148.64 28.7488 1191.92 -1.00292 1230.94 -35.3913C1262.69 -60.5063 1307.51 -64.1494 1384.08 -110.681C1399.14 -119.814 1413.38 -130.23 1426.64 -141.813C1445.03 -157.876 1461.64 -171.454 1475.5 -182.659C1545.89 -239.569 1567.58 -244.592 1620.74 -280.084C1636.58 -290.77 1650.83 -303.628 1663.08 -318.281C1693.01 -354.16 1723.04 -382.09 1755.72 -414.767C1792.43 -451.474 1835.71 -481.225 1874.74 -515.614C1906.48 -540.729 1951.31 -544.372 2027.87 -590.904C2042.93 -600.037 2057.17 -610.452 2070.44 -622.035C2088.82 -638.098 2105.44 -651.677 2119.29 -662.882H2064.75C2062.38 -660.84 2060.06 -658.687 2057.57 -656.81C2015.56 -624.188 1916.09 -555.025 1900.13 -559.938C1899.92 -560.006 1899.72 -560.116 1899.55 -560.263C1899.38 -560.409 1899.25 -560.589 1899.15 -560.79C1899.05 -560.991 1898.99 -561.21 1898.98 -561.434C1898.97 -561.657 1899.01 -561.88 1899.08 -562.09C1910.29 -602.109 2002.09 -637.27 2012.36 -652.229C2013.14 -653.277 2013.41 -656.479 2009.16 -656.479C1910.68 -658.411 1902.23 -580.251 1873.52 -553.921C1872.86 -553.479 1779.84 -496.626 1755.66 -469.303C1753.29 -466.708 1751.69 -463.948 1749.26 -460.085C1722.82 -418.686 1685.61 -421.612 1613.29 -329.596C1602.47 -315.809 1589.5 -303.861 1574.87 -294.215C1530.37 -264.794 1514.03 -270.479 1430.07 -191.105C1427.09 -188.345 1423.99 -185.309 1420.85 -182.659C1418.47 -180.617 1416.16 -178.464 1413.67 -176.588C1371.66 -143.966 1272.18 -74.8026 1256.23 -79.7153C1256.02 -79.7834 1255.82 -79.894 1255.65 -80.0404C1255.48 -80.1869 1255.34 -80.3661 1255.24 -80.5674C1255.15 -80.7686 1255.09 -80.9876 1255.08 -81.2111C1255.07 -81.4346 1255.1 -81.6581 1255.18 -81.868C1266.39 -121.887 1358.19 -157.048 1368.46 -172.006C1369.23 -173.055 1369.51 -176.257 1365.26 -176.257C1266.77 -178.188 1258.33 -100.028 1229.62 -73.6987C1228.96 -73.2571 1135.94 -16.4031 1111.76 10.9199C1109.38 13.5142 1107.78 16.274 1105.35 20.1379C1078.91 61.5364 1041.7 58.6108 969.387 150.626C958.57 164.413 945.595 176.361 930.965 186.008C886.47 215.428 870.129 209.743 786.163 289.118C783.182 291.878 780.091 294.913 776.944 297.563C774.571 299.605 772.252 301.758 769.768 303.635C727.757 336.257 628.279 405.42 612.325 400.507C612.114 400.436 611.919 400.323 611.752 400.176C611.585 400.029 611.449 399.85 611.351 399.65C611.253 399.45 611.197 399.232 611.184 399.01C611.171 398.787 611.202 398.565 611.276 398.354C622.483 358.336 714.287 323.175 724.555 308.216C725.328 307.167 725.604 303.966 721.354 303.966C622.869 302.034 614.423 380.194 585.716 406.524C585.054 406.965 492.035 463.819 467.855 491.142C465.481 493.737 463.881 496.496 461.452 500.36C435.009 541.759 397.801 538.833 325.483 630.848C314.666 644.635 301.691 656.583 287.061 666.23C242.566 695.651 226.226 689.965 142.26 769.34C139.279 772.1 136.187 775.136 133.041 777.785C130.667 779.828 128.348 781.98 125.864 783.857C83.8538 816.479 -15.6244 885.642 -31.5785 880.73C-31.7895 880.658 -31.9842 880.546 -32.1514 880.399C-32.3186 880.251 -32.4549 880.072 -32.5525 879.872C-32.6501 879.672 -32.7069 879.454 -32.7198 879.232C-32.7326 879.01 -32.7011 878.787 -32.6273 878.577C-21.4208 838.558 70.384 803.397 80.652 788.438C81.4248 787.39 81.7008 784.188 77.4501 784.188C-21.0344 782.256 -29.4807 860.417 -58.1869 886.746C-58.8494 887.188 -151.869 944.042 -176.048 971.365V1025.9C-139.337 989.194 -96.0571 959.442 -57.0277 925.053C-24.8987 899.938 19.9272 896.295 96.4956 849.763Z" fill="#222374"/>
</g>
</g>
<defs>
<clipPath id="clip0_5031_7">
<rect width="1920" height="377" fill="white"/>
</clipPath>
</defs>
</svg>
